G04 EAGLE Gerber RS-274X export*
G75*
%MOMM*%
%FSLAX34Y34*%
%LPD*%
%INBottom Copper*%
%IPPOS*%
%AMOC8*
5,1,8,0,0,1.08239X$1,22.5*%
G01*
%ADD10C,1.879600*%
%ADD11C,1.651000*%
%ADD12R,1.651000X1.651000*%
%ADD13C,2.032000*%
%ADD14C,4.216000*%
%ADD15C,4.114800*%
%ADD16P,1.429621X8X112.500000*%
%ADD17P,1.429621X8X202.500000*%
%ADD18C,1.625600*%
%ADD19R,1.879600X1.879600*%
%ADD20C,0.914400*%
%ADD21C,0.254000*%

G36*
X950998Y10164D02*
X950998Y10164D01*
X951017Y10162D01*
X951119Y10184D01*
X951221Y10200D01*
X951238Y10210D01*
X951258Y10214D01*
X951347Y10267D01*
X951438Y10316D01*
X951452Y10330D01*
X951469Y10340D01*
X951536Y10419D01*
X951608Y10494D01*
X951616Y10512D01*
X951629Y10527D01*
X951668Y10623D01*
X951711Y10717D01*
X951713Y10737D01*
X951721Y10755D01*
X951739Y10922D01*
X951739Y1005119D01*
X951737Y1005134D01*
X951739Y1005149D01*
X951738Y1005152D01*
X951738Y1005154D01*
X951729Y1005195D01*
X951717Y1005255D01*
X951700Y1005362D01*
X951693Y1005375D01*
X951690Y1005390D01*
X951635Y1005484D01*
X951584Y1005580D01*
X951574Y1005590D01*
X951566Y1005603D01*
X951485Y1005674D01*
X951406Y1005749D01*
X951393Y1005755D01*
X951381Y1005765D01*
X951281Y1005807D01*
X951183Y1005853D01*
X951168Y1005854D01*
X951154Y1005860D01*
X950988Y1005881D01*
X-1631Y1018294D01*
X-1660Y1018290D01*
X-1689Y1018293D01*
X-1781Y1018272D01*
X-1874Y1018258D01*
X-1900Y1018244D01*
X-1929Y1018237D01*
X-2009Y1018188D01*
X-2093Y1018145D01*
X-2113Y1018124D01*
X-2139Y1018109D01*
X-2199Y1018037D01*
X-2264Y1017969D01*
X-2277Y1017943D01*
X-2296Y1017920D01*
X-2330Y1017832D01*
X-2371Y1017748D01*
X-2375Y1017718D01*
X-2385Y1017691D01*
X-2402Y1017524D01*
X10027Y10913D01*
X10029Y10898D01*
X10028Y10883D01*
X10051Y10777D01*
X10069Y10670D01*
X10077Y10657D01*
X10080Y10642D01*
X10135Y10549D01*
X10187Y10454D01*
X10198Y10444D01*
X10206Y10431D01*
X10288Y10361D01*
X10368Y10287D01*
X10381Y10281D01*
X10393Y10271D01*
X10494Y10231D01*
X10592Y10186D01*
X10607Y10185D01*
X10621Y10179D01*
X10788Y10161D01*
X950978Y10161D01*
X950998Y10164D01*
G37*
%LPC*%
G36*
X87485Y69087D02*
X87485Y69087D01*
X84871Y70170D01*
X82870Y72171D01*
X81787Y74785D01*
X81787Y77615D01*
X82870Y80229D01*
X84653Y82012D01*
X84664Y82028D01*
X84680Y82040D01*
X84736Y82128D01*
X84796Y82211D01*
X84802Y82230D01*
X84813Y82247D01*
X84838Y82348D01*
X84869Y82447D01*
X84868Y82466D01*
X84873Y82486D01*
X84865Y82589D01*
X84862Y82692D01*
X84855Y82711D01*
X84854Y82731D01*
X84814Y82826D01*
X84778Y82923D01*
X84765Y82939D01*
X84758Y82957D01*
X84653Y83088D01*
X82870Y84871D01*
X81787Y87485D01*
X81787Y90315D01*
X82870Y92929D01*
X84653Y94712D01*
X84664Y94728D01*
X84680Y94740D01*
X84736Y94828D01*
X84796Y94911D01*
X84802Y94930D01*
X84813Y94947D01*
X84838Y95048D01*
X84869Y95147D01*
X84868Y95166D01*
X84873Y95186D01*
X84865Y95289D01*
X84862Y95392D01*
X84855Y95411D01*
X84854Y95431D01*
X84814Y95526D01*
X84778Y95623D01*
X84765Y95639D01*
X84758Y95657D01*
X84653Y95788D01*
X82870Y97571D01*
X81787Y100185D01*
X81787Y103015D01*
X82870Y105629D01*
X84653Y107412D01*
X84664Y107428D01*
X84680Y107440D01*
X84736Y107528D01*
X84796Y107611D01*
X84802Y107630D01*
X84813Y107647D01*
X84838Y107748D01*
X84869Y107847D01*
X84868Y107866D01*
X84873Y107886D01*
X84865Y107989D01*
X84862Y108092D01*
X84855Y108111D01*
X84854Y108131D01*
X84814Y108226D01*
X84778Y108323D01*
X84765Y108339D01*
X84758Y108357D01*
X84653Y108488D01*
X82870Y110271D01*
X81787Y112885D01*
X81787Y115715D01*
X82870Y118329D01*
X84653Y120112D01*
X84664Y120128D01*
X84680Y120140D01*
X84736Y120228D01*
X84796Y120311D01*
X84802Y120330D01*
X84813Y120347D01*
X84838Y120448D01*
X84869Y120547D01*
X84868Y120566D01*
X84873Y120586D01*
X84865Y120689D01*
X84862Y120792D01*
X84855Y120811D01*
X84854Y120831D01*
X84814Y120926D01*
X84778Y121023D01*
X84765Y121039D01*
X84758Y121057D01*
X84653Y121188D01*
X82870Y122971D01*
X81787Y125585D01*
X81787Y128415D01*
X82870Y131029D01*
X84871Y133030D01*
X87485Y134113D01*
X90315Y134113D01*
X92929Y133030D01*
X94925Y131034D01*
X94999Y130981D01*
X95069Y130921D01*
X95099Y130909D01*
X95125Y130890D01*
X95212Y130863D01*
X95297Y130829D01*
X95338Y130825D01*
X95360Y130818D01*
X95392Y130819D01*
X95464Y130811D01*
X544206Y130811D01*
X544296Y130825D01*
X544387Y130833D01*
X544417Y130845D01*
X544449Y130850D01*
X544530Y130893D01*
X544614Y130929D01*
X544646Y130955D01*
X544666Y130966D01*
X544689Y130989D01*
X544744Y131034D01*
X551464Y137754D01*
X551517Y137827D01*
X551577Y137897D01*
X551589Y137927D01*
X551608Y137953D01*
X551635Y138040D01*
X551669Y138125D01*
X551673Y138166D01*
X551680Y138188D01*
X551679Y138221D01*
X551687Y138292D01*
X551687Y141115D01*
X552770Y143729D01*
X554771Y145730D01*
X557385Y146813D01*
X560215Y146813D01*
X562829Y145730D01*
X564830Y143729D01*
X565913Y141115D01*
X565913Y138285D01*
X564830Y135671D01*
X562829Y133670D01*
X560215Y132587D01*
X557392Y132587D01*
X557302Y132573D01*
X557211Y132565D01*
X557181Y132553D01*
X557149Y132548D01*
X557068Y132505D01*
X556984Y132469D01*
X556952Y132443D01*
X556932Y132432D01*
X556909Y132409D01*
X556854Y132364D01*
X547678Y123189D01*
X95464Y123189D01*
X95373Y123175D01*
X95283Y123167D01*
X95253Y123155D01*
X95221Y123150D01*
X95140Y123107D01*
X95056Y123071D01*
X95024Y123045D01*
X95003Y123034D01*
X94981Y123011D01*
X94925Y122966D01*
X93147Y121188D01*
X93136Y121172D01*
X93120Y121160D01*
X93064Y121072D01*
X93004Y120989D01*
X92998Y120970D01*
X92987Y120953D01*
X92962Y120852D01*
X92931Y120753D01*
X92932Y120734D01*
X92927Y120714D01*
X92935Y120611D01*
X92938Y120508D01*
X92945Y120489D01*
X92946Y120469D01*
X92986Y120374D01*
X93022Y120277D01*
X93035Y120261D01*
X93042Y120243D01*
X93147Y120112D01*
X94925Y118334D01*
X94999Y118281D01*
X95069Y118221D01*
X95099Y118209D01*
X95125Y118190D01*
X95212Y118163D01*
X95297Y118129D01*
X95338Y118125D01*
X95360Y118118D01*
X95392Y118119D01*
X95464Y118111D01*
X526836Y118111D01*
X526927Y118125D01*
X527017Y118133D01*
X527047Y118145D01*
X527079Y118150D01*
X527160Y118193D01*
X527244Y118229D01*
X527276Y118255D01*
X527297Y118266D01*
X527319Y118289D01*
X527375Y118334D01*
X529371Y120330D01*
X531985Y121413D01*
X534815Y121413D01*
X537429Y120330D01*
X539430Y118329D01*
X540513Y115715D01*
X540513Y112885D01*
X539430Y110271D01*
X537429Y108270D01*
X534815Y107187D01*
X531985Y107187D01*
X529371Y108270D01*
X527375Y110266D01*
X527301Y110319D01*
X527231Y110379D01*
X527201Y110391D01*
X527175Y110410D01*
X527088Y110437D01*
X527003Y110471D01*
X526962Y110475D01*
X526940Y110482D01*
X526908Y110481D01*
X526836Y110489D01*
X95464Y110489D01*
X95373Y110475D01*
X95283Y110467D01*
X95253Y110455D01*
X95221Y110450D01*
X95140Y110407D01*
X95056Y110371D01*
X95024Y110345D01*
X95003Y110334D01*
X94981Y110311D01*
X94925Y110266D01*
X93147Y108488D01*
X93136Y108472D01*
X93120Y108460D01*
X93064Y108372D01*
X93004Y108289D01*
X92998Y108270D01*
X92987Y108253D01*
X92962Y108152D01*
X92931Y108053D01*
X92932Y108034D01*
X92927Y108014D01*
X92935Y107911D01*
X92938Y107808D01*
X92945Y107789D01*
X92946Y107769D01*
X92986Y107674D01*
X93022Y107577D01*
X93035Y107561D01*
X93042Y107543D01*
X93147Y107412D01*
X94925Y105634D01*
X94999Y105581D01*
X95069Y105521D01*
X95099Y105509D01*
X95125Y105490D01*
X95212Y105463D01*
X95297Y105429D01*
X95338Y105425D01*
X95360Y105418D01*
X95392Y105419D01*
X95464Y105411D01*
X476036Y105411D01*
X476127Y105425D01*
X476217Y105433D01*
X476247Y105445D01*
X476279Y105450D01*
X476360Y105493D01*
X476444Y105529D01*
X476476Y105555D01*
X476497Y105566D01*
X476519Y105589D01*
X476575Y105634D01*
X478571Y107630D01*
X481185Y108713D01*
X484015Y108713D01*
X486629Y107630D01*
X488630Y105629D01*
X489713Y103015D01*
X489713Y100185D01*
X488630Y97571D01*
X486629Y95570D01*
X484015Y94487D01*
X481185Y94487D01*
X478571Y95570D01*
X476575Y97566D01*
X476501Y97619D01*
X476431Y97679D01*
X476401Y97691D01*
X476375Y97710D01*
X476288Y97737D01*
X476203Y97771D01*
X476162Y97775D01*
X476140Y97782D01*
X476108Y97781D01*
X476036Y97789D01*
X95464Y97789D01*
X95373Y97775D01*
X95283Y97767D01*
X95253Y97755D01*
X95221Y97750D01*
X95140Y97707D01*
X95056Y97671D01*
X95024Y97645D01*
X95003Y97634D01*
X94981Y97611D01*
X94925Y97566D01*
X93147Y95788D01*
X93136Y95772D01*
X93120Y95760D01*
X93064Y95672D01*
X93004Y95589D01*
X92998Y95570D01*
X92987Y95553D01*
X92962Y95452D01*
X92931Y95353D01*
X92932Y95334D01*
X92927Y95314D01*
X92935Y95211D01*
X92938Y95108D01*
X92945Y95089D01*
X92946Y95069D01*
X92986Y94974D01*
X93022Y94877D01*
X93035Y94861D01*
X93042Y94843D01*
X93147Y94712D01*
X94925Y92934D01*
X94999Y92881D01*
X95069Y92821D01*
X95099Y92809D01*
X95125Y92790D01*
X95212Y92763D01*
X95297Y92729D01*
X95338Y92725D01*
X95360Y92718D01*
X95392Y92719D01*
X95464Y92711D01*
X349036Y92711D01*
X349127Y92725D01*
X349217Y92733D01*
X349247Y92745D01*
X349279Y92750D01*
X349360Y92793D01*
X349444Y92829D01*
X349476Y92855D01*
X349497Y92866D01*
X349519Y92889D01*
X349575Y92934D01*
X351571Y94930D01*
X354185Y96013D01*
X357015Y96013D01*
X359629Y94930D01*
X361630Y92929D01*
X362713Y90315D01*
X362713Y87485D01*
X361630Y84871D01*
X359629Y82870D01*
X357015Y81787D01*
X354185Y81787D01*
X351571Y82870D01*
X349575Y84866D01*
X349501Y84919D01*
X349431Y84979D01*
X349401Y84991D01*
X349375Y85010D01*
X349288Y85037D01*
X349203Y85071D01*
X349162Y85075D01*
X349140Y85082D01*
X349108Y85081D01*
X349036Y85089D01*
X95464Y85089D01*
X95373Y85075D01*
X95283Y85067D01*
X95253Y85055D01*
X95221Y85050D01*
X95140Y85007D01*
X95056Y84971D01*
X95024Y84945D01*
X95003Y84934D01*
X94981Y84911D01*
X94925Y84866D01*
X93147Y83088D01*
X93136Y83072D01*
X93120Y83060D01*
X93064Y82972D01*
X93004Y82889D01*
X92998Y82870D01*
X92987Y82853D01*
X92962Y82752D01*
X92931Y82653D01*
X92932Y82634D01*
X92927Y82614D01*
X92935Y82511D01*
X92938Y82408D01*
X92945Y82389D01*
X92946Y82369D01*
X92986Y82274D01*
X93022Y82177D01*
X93035Y82161D01*
X93042Y82143D01*
X93147Y82012D01*
X94925Y80234D01*
X94999Y80181D01*
X95069Y80121D01*
X95099Y80109D01*
X95125Y80090D01*
X95212Y80063D01*
X95297Y80029D01*
X95338Y80025D01*
X95360Y80018D01*
X95392Y80019D01*
X95464Y80011D01*
X323636Y80011D01*
X323727Y80025D01*
X323817Y80033D01*
X323847Y80045D01*
X323879Y80050D01*
X323960Y80093D01*
X324044Y80129D01*
X324076Y80155D01*
X324097Y80166D01*
X324119Y80189D01*
X324175Y80234D01*
X326171Y82230D01*
X328785Y83313D01*
X331615Y83313D01*
X334229Y82230D01*
X336230Y80229D01*
X337313Y77615D01*
X337313Y74785D01*
X336230Y72171D01*
X334229Y70170D01*
X331615Y69087D01*
X328785Y69087D01*
X326171Y70170D01*
X324175Y72166D01*
X324101Y72219D01*
X324031Y72279D01*
X324001Y72291D01*
X323975Y72310D01*
X323888Y72337D01*
X323803Y72371D01*
X323762Y72375D01*
X323740Y72382D01*
X323708Y72381D01*
X323636Y72389D01*
X95464Y72389D01*
X95373Y72375D01*
X95283Y72367D01*
X95253Y72355D01*
X95221Y72350D01*
X95140Y72307D01*
X95056Y72271D01*
X95024Y72245D01*
X95003Y72234D01*
X94981Y72211D01*
X94925Y72166D01*
X92929Y70170D01*
X90315Y69087D01*
X87485Y69087D01*
G37*
%LPD*%
%LPC*%
G36*
X49385Y284987D02*
X49385Y284987D01*
X46771Y286070D01*
X44770Y288071D01*
X43687Y290685D01*
X43687Y293515D01*
X44770Y296129D01*
X46771Y298130D01*
X49385Y299213D01*
X52215Y299213D01*
X54829Y298130D01*
X56825Y296134D01*
X56899Y296081D01*
X56969Y296021D01*
X56999Y296009D01*
X57025Y295990D01*
X57112Y295963D01*
X57197Y295929D01*
X57238Y295925D01*
X57260Y295918D01*
X57292Y295919D01*
X57364Y295911D01*
X552236Y295911D01*
X552327Y295925D01*
X552417Y295933D01*
X552447Y295945D01*
X552479Y295950D01*
X552560Y295993D01*
X552644Y296029D01*
X552676Y296055D01*
X552697Y296066D01*
X552719Y296089D01*
X552775Y296134D01*
X554771Y298130D01*
X557385Y299213D01*
X560215Y299213D01*
X562829Y298130D01*
X564830Y296129D01*
X565913Y293515D01*
X565913Y290685D01*
X564830Y288071D01*
X562829Y286070D01*
X560215Y284987D01*
X557385Y284987D01*
X554771Y286070D01*
X552775Y288066D01*
X552701Y288119D01*
X552631Y288179D01*
X552601Y288191D01*
X552575Y288210D01*
X552488Y288237D01*
X552403Y288271D01*
X552362Y288275D01*
X552340Y288282D01*
X552308Y288281D01*
X552236Y288289D01*
X57364Y288289D01*
X57273Y288275D01*
X57183Y288267D01*
X57153Y288255D01*
X57121Y288250D01*
X57040Y288207D01*
X56956Y288171D01*
X56924Y288145D01*
X56903Y288134D01*
X56881Y288111D01*
X56825Y288066D01*
X54829Y286070D01*
X52215Y284987D01*
X49385Y284987D01*
G37*
%LPD*%
%LPC*%
G36*
X36685Y386587D02*
X36685Y386587D01*
X34071Y387670D01*
X32070Y389671D01*
X30987Y392285D01*
X30987Y395115D01*
X32070Y397729D01*
X34066Y399725D01*
X34119Y399799D01*
X34179Y399869D01*
X34191Y399899D01*
X34210Y399925D01*
X34237Y400012D01*
X34271Y400097D01*
X34275Y400138D01*
X34282Y400160D01*
X34281Y400192D01*
X34289Y400264D01*
X34289Y433378D01*
X328622Y727711D01*
X361736Y727711D01*
X361827Y727725D01*
X361917Y727733D01*
X361947Y727745D01*
X361979Y727750D01*
X362060Y727793D01*
X362144Y727829D01*
X362176Y727855D01*
X362197Y727866D01*
X362219Y727889D01*
X362275Y727934D01*
X364271Y729930D01*
X366885Y731013D01*
X369715Y731013D01*
X372329Y729930D01*
X374330Y727929D01*
X375413Y725315D01*
X375413Y722485D01*
X374330Y719871D01*
X372329Y717870D01*
X369715Y716787D01*
X366885Y716787D01*
X364271Y717870D01*
X362275Y719866D01*
X362201Y719919D01*
X362131Y719979D01*
X362101Y719991D01*
X362075Y720010D01*
X361988Y720037D01*
X361903Y720071D01*
X361862Y720075D01*
X361840Y720082D01*
X361808Y720081D01*
X361736Y720089D01*
X332094Y720089D01*
X332004Y720075D01*
X331913Y720067D01*
X331883Y720055D01*
X331851Y720050D01*
X331770Y720007D01*
X331686Y719971D01*
X331654Y719945D01*
X331634Y719934D01*
X331611Y719911D01*
X331556Y719866D01*
X42134Y430444D01*
X42081Y430371D01*
X42021Y430301D01*
X42009Y430271D01*
X41990Y430245D01*
X41963Y430158D01*
X41929Y430073D01*
X41925Y430032D01*
X41918Y430010D01*
X41919Y429977D01*
X41911Y429906D01*
X41911Y400264D01*
X41925Y400173D01*
X41933Y400083D01*
X41945Y400053D01*
X41950Y400021D01*
X41993Y399940D01*
X42029Y399856D01*
X42055Y399824D01*
X42066Y399803D01*
X42089Y399781D01*
X42134Y399725D01*
X44130Y397729D01*
X45213Y395115D01*
X45213Y392285D01*
X44130Y389671D01*
X42129Y387670D01*
X39515Y386587D01*
X36685Y386587D01*
G37*
%LPD*%
%LPC*%
G36*
X379585Y145287D02*
X379585Y145287D01*
X376971Y146370D01*
X374970Y148371D01*
X373887Y150985D01*
X373887Y153815D01*
X374970Y156429D01*
X376971Y158430D01*
X379585Y159513D01*
X382415Y159513D01*
X385029Y158430D01*
X387025Y156434D01*
X387099Y156381D01*
X387169Y156321D01*
X387199Y156309D01*
X387225Y156290D01*
X387312Y156263D01*
X387397Y156229D01*
X387438Y156225D01*
X387460Y156218D01*
X387492Y156219D01*
X387564Y156211D01*
X592328Y156211D01*
X592348Y156214D01*
X592367Y156212D01*
X592469Y156234D01*
X592571Y156250D01*
X592588Y156260D01*
X592608Y156264D01*
X592697Y156317D01*
X592788Y156366D01*
X592802Y156380D01*
X592819Y156390D01*
X592886Y156469D01*
X592958Y156544D01*
X592966Y156562D01*
X592979Y156577D01*
X593018Y156673D01*
X593061Y156767D01*
X593063Y156787D01*
X593071Y156805D01*
X593089Y156972D01*
X593089Y361736D01*
X593075Y361827D01*
X593067Y361917D01*
X593055Y361947D01*
X593050Y361979D01*
X593007Y362060D01*
X592971Y362144D01*
X592945Y362176D01*
X592934Y362197D01*
X592911Y362219D01*
X592866Y362275D01*
X590870Y364271D01*
X589787Y366885D01*
X589787Y369715D01*
X590870Y372329D01*
X592871Y374330D01*
X595485Y375413D01*
X598315Y375413D01*
X600929Y374330D01*
X602930Y372329D01*
X604013Y369715D01*
X604013Y366885D01*
X602930Y364271D01*
X600934Y362275D01*
X600881Y362201D01*
X600821Y362131D01*
X600809Y362101D01*
X600790Y362075D01*
X600763Y361988D01*
X600729Y361903D01*
X600725Y361862D01*
X600718Y361840D01*
X600719Y361808D01*
X600711Y361736D01*
X600711Y150822D01*
X598478Y148589D01*
X387564Y148589D01*
X387473Y148575D01*
X387383Y148567D01*
X387353Y148555D01*
X387321Y148550D01*
X387240Y148507D01*
X387156Y148471D01*
X387124Y148445D01*
X387103Y148434D01*
X387081Y148411D01*
X387025Y148366D01*
X385029Y146370D01*
X382415Y145287D01*
X379585Y145287D01*
G37*
%LPD*%
%LPC*%
G36*
X303385Y56387D02*
X303385Y56387D01*
X300771Y57470D01*
X298770Y59471D01*
X297687Y62085D01*
X297687Y64915D01*
X298770Y67529D01*
X300771Y69530D01*
X303385Y70613D01*
X306215Y70613D01*
X308829Y69530D01*
X310825Y67534D01*
X310899Y67481D01*
X310969Y67421D01*
X310999Y67409D01*
X311025Y67390D01*
X311112Y67363D01*
X311197Y67329D01*
X311238Y67325D01*
X311260Y67318D01*
X311292Y67319D01*
X311364Y67311D01*
X704637Y67311D01*
X704727Y67325D01*
X704818Y67333D01*
X704847Y67345D01*
X704879Y67350D01*
X704960Y67393D01*
X705044Y67429D01*
X705076Y67455D01*
X705097Y67466D01*
X705119Y67489D01*
X705175Y67534D01*
X707171Y69530D01*
X709785Y70613D01*
X712615Y70613D01*
X715229Y69530D01*
X717230Y67529D01*
X718313Y64915D01*
X718313Y62085D01*
X717230Y59471D01*
X715229Y57470D01*
X712615Y56387D01*
X709785Y56387D01*
X707171Y57470D01*
X705175Y59466D01*
X705101Y59519D01*
X705031Y59579D01*
X705001Y59591D01*
X704975Y59610D01*
X704888Y59637D01*
X704803Y59671D01*
X704762Y59675D01*
X704740Y59682D01*
X704708Y59681D01*
X704637Y59689D01*
X311364Y59689D01*
X311273Y59675D01*
X311183Y59667D01*
X311153Y59655D01*
X311121Y59650D01*
X311040Y59607D01*
X310956Y59571D01*
X310924Y59545D01*
X310903Y59534D01*
X310881Y59511D01*
X310825Y59466D01*
X308829Y57470D01*
X306215Y56387D01*
X303385Y56387D01*
G37*
%LPD*%
%LPC*%
G36*
X782702Y140557D02*
X782702Y140557D01*
X774020Y144153D01*
X767375Y150798D01*
X763779Y159480D01*
X763779Y168876D01*
X767375Y177558D01*
X774020Y184203D01*
X782702Y187799D01*
X792098Y187799D01*
X800780Y184203D01*
X807425Y177558D01*
X811021Y168876D01*
X811021Y159480D01*
X807425Y150798D01*
X800780Y144153D01*
X792098Y140557D01*
X782702Y140557D01*
G37*
%LPD*%
%LPC*%
G36*
X531985Y653287D02*
X531985Y653287D01*
X529371Y654370D01*
X527370Y656371D01*
X526287Y658985D01*
X526287Y661815D01*
X527370Y664429D01*
X529366Y666425D01*
X529419Y666499D01*
X529479Y666569D01*
X529491Y666599D01*
X529510Y666625D01*
X529537Y666712D01*
X529571Y666797D01*
X529575Y666838D01*
X529582Y666860D01*
X529581Y666892D01*
X529589Y666964D01*
X529589Y780836D01*
X529575Y780927D01*
X529567Y781017D01*
X529555Y781047D01*
X529550Y781079D01*
X529507Y781160D01*
X529471Y781244D01*
X529445Y781276D01*
X529434Y781297D01*
X529411Y781319D01*
X529366Y781375D01*
X527370Y783371D01*
X526287Y785985D01*
X526287Y788815D01*
X527370Y791429D01*
X529371Y793430D01*
X531985Y794513D01*
X534815Y794513D01*
X537429Y793430D01*
X539430Y791429D01*
X540513Y788815D01*
X540513Y785985D01*
X539430Y783371D01*
X537434Y781375D01*
X537381Y781301D01*
X537321Y781231D01*
X537309Y781201D01*
X537290Y781175D01*
X537263Y781088D01*
X537229Y781003D01*
X537225Y780962D01*
X537218Y780940D01*
X537219Y780908D01*
X537211Y780836D01*
X537211Y666964D01*
X537225Y666873D01*
X537233Y666783D01*
X537245Y666753D01*
X537250Y666721D01*
X537293Y666640D01*
X537329Y666556D01*
X537355Y666524D01*
X537366Y666503D01*
X537389Y666481D01*
X537434Y666425D01*
X539430Y664429D01*
X540513Y661815D01*
X540513Y658985D01*
X539430Y656371D01*
X537429Y654370D01*
X534815Y653287D01*
X531985Y653287D01*
G37*
%LPD*%
%LPC*%
G36*
X176385Y157987D02*
X176385Y157987D01*
X173771Y159070D01*
X171770Y161071D01*
X170687Y163685D01*
X170687Y166515D01*
X171770Y169129D01*
X173771Y171130D01*
X176385Y172213D01*
X179215Y172213D01*
X181829Y171130D01*
X183825Y169134D01*
X183899Y169081D01*
X183969Y169021D01*
X183999Y169009D01*
X184025Y168990D01*
X184112Y168963D01*
X184197Y168929D01*
X184238Y168925D01*
X184260Y168918D01*
X184292Y168919D01*
X184364Y168911D01*
X272836Y168911D01*
X272927Y168925D01*
X273017Y168933D01*
X273047Y168945D01*
X273079Y168950D01*
X273160Y168993D01*
X273244Y169029D01*
X273276Y169055D01*
X273297Y169066D01*
X273319Y169089D01*
X273375Y169134D01*
X275371Y171130D01*
X277985Y172213D01*
X280815Y172213D01*
X283429Y171130D01*
X285430Y169129D01*
X286513Y166515D01*
X286513Y163685D01*
X285430Y161071D01*
X283429Y159070D01*
X280815Y157987D01*
X277985Y157987D01*
X275371Y159070D01*
X273375Y161066D01*
X273301Y161119D01*
X273231Y161179D01*
X273201Y161191D01*
X273175Y161210D01*
X273088Y161237D01*
X273003Y161271D01*
X272962Y161275D01*
X272940Y161282D01*
X272908Y161281D01*
X272836Y161289D01*
X184364Y161289D01*
X184273Y161275D01*
X184183Y161267D01*
X184153Y161255D01*
X184121Y161250D01*
X184040Y161207D01*
X183956Y161171D01*
X183924Y161145D01*
X183903Y161134D01*
X183881Y161111D01*
X183825Y161066D01*
X181829Y159070D01*
X179215Y157987D01*
X176385Y157987D01*
G37*
%LPD*%
%LPC*%
G36*
X557385Y500887D02*
X557385Y500887D01*
X554771Y501970D01*
X552770Y503971D01*
X551687Y506585D01*
X551687Y509415D01*
X552770Y512029D01*
X554771Y514030D01*
X557385Y515113D01*
X560215Y515113D01*
X562829Y514030D01*
X564825Y512034D01*
X564899Y511981D01*
X564969Y511921D01*
X564999Y511909D01*
X565025Y511890D01*
X565112Y511863D01*
X565197Y511829D01*
X565238Y511825D01*
X565260Y511818D01*
X565292Y511819D01*
X565364Y511811D01*
X653836Y511811D01*
X653927Y511825D01*
X654017Y511833D01*
X654047Y511845D01*
X654079Y511850D01*
X654160Y511893D01*
X654244Y511929D01*
X654276Y511955D01*
X654297Y511966D01*
X654309Y511979D01*
X654310Y511979D01*
X654322Y511991D01*
X654375Y512034D01*
X656371Y514030D01*
X658985Y515113D01*
X661815Y515113D01*
X664429Y514030D01*
X666430Y512029D01*
X667513Y509415D01*
X667513Y506585D01*
X666430Y503971D01*
X664429Y501970D01*
X661815Y500887D01*
X658985Y500887D01*
X656371Y501970D01*
X654375Y503966D01*
X654301Y504019D01*
X654231Y504079D01*
X654201Y504091D01*
X654175Y504110D01*
X654088Y504137D01*
X654003Y504171D01*
X653962Y504175D01*
X653940Y504182D01*
X653908Y504181D01*
X653836Y504189D01*
X565364Y504189D01*
X565273Y504175D01*
X565183Y504167D01*
X565153Y504155D01*
X565121Y504150D01*
X565040Y504107D01*
X564956Y504071D01*
X564924Y504045D01*
X564903Y504034D01*
X564881Y504011D01*
X564825Y503966D01*
X562829Y501970D01*
X560215Y500887D01*
X557385Y500887D01*
G37*
%LPD*%
%LPC*%
G36*
X633585Y297687D02*
X633585Y297687D01*
X630971Y298770D01*
X628970Y300771D01*
X627887Y303385D01*
X627887Y306215D01*
X628970Y308829D01*
X630966Y310825D01*
X631019Y310899D01*
X631079Y310969D01*
X631091Y310999D01*
X631110Y311025D01*
X631137Y311112D01*
X631171Y311197D01*
X631175Y311238D01*
X631182Y311260D01*
X631181Y311292D01*
X631189Y311364D01*
X631189Y361736D01*
X631175Y361827D01*
X631167Y361917D01*
X631155Y361947D01*
X631150Y361979D01*
X631107Y362060D01*
X631071Y362144D01*
X631045Y362176D01*
X631034Y362197D01*
X631011Y362219D01*
X630966Y362275D01*
X628970Y364271D01*
X627887Y366885D01*
X627887Y369715D01*
X628970Y372329D01*
X630971Y374330D01*
X633585Y375413D01*
X636415Y375413D01*
X639029Y374330D01*
X641030Y372329D01*
X642113Y369715D01*
X642113Y366885D01*
X641030Y364271D01*
X639034Y362275D01*
X638981Y362201D01*
X638921Y362131D01*
X638909Y362101D01*
X638890Y362075D01*
X638863Y361988D01*
X638829Y361903D01*
X638825Y361862D01*
X638818Y361840D01*
X638819Y361808D01*
X638811Y361736D01*
X638811Y311364D01*
X638825Y311273D01*
X638833Y311183D01*
X638845Y311153D01*
X638850Y311121D01*
X638893Y311040D01*
X638929Y310956D01*
X638955Y310924D01*
X638966Y310903D01*
X638989Y310881D01*
X639034Y310825D01*
X641030Y308829D01*
X642113Y306215D01*
X642113Y303385D01*
X641030Y300771D01*
X639029Y298770D01*
X636415Y297687D01*
X633585Y297687D01*
G37*
%LPD*%
%LPC*%
G36*
X815050Y584961D02*
X815050Y584961D01*
X813561Y586450D01*
X813561Y607350D01*
X815050Y608839D01*
X835950Y608839D01*
X837439Y607350D01*
X837439Y586450D01*
X835950Y584961D01*
X815050Y584961D01*
G37*
%LPD*%
%LPC*%
G36*
X379744Y330199D02*
X379744Y330199D01*
X375076Y332133D01*
X371503Y335706D01*
X369569Y340374D01*
X369569Y345426D01*
X371503Y350094D01*
X375076Y353667D01*
X379744Y355601D01*
X384796Y355601D01*
X389464Y353667D01*
X393037Y350094D01*
X394971Y345426D01*
X394971Y340374D01*
X393037Y335706D01*
X389464Y332133D01*
X384796Y330199D01*
X379744Y330199D01*
G37*
%LPD*%
%LPC*%
G36*
X701893Y738704D02*
X701893Y738704D01*
X700404Y740193D01*
X700404Y758807D01*
X701893Y760296D01*
X720507Y760296D01*
X721996Y758807D01*
X721996Y740193D01*
X720507Y738704D01*
X701893Y738704D01*
G37*
%LPD*%
%LPC*%
G36*
X473093Y421004D02*
X473093Y421004D01*
X471604Y422493D01*
X471604Y441107D01*
X473093Y442596D01*
X491707Y442596D01*
X493196Y441107D01*
X493196Y422493D01*
X491707Y421004D01*
X473093Y421004D01*
G37*
%LPD*%
%LPC*%
G36*
X683425Y953261D02*
X683425Y953261D01*
X679037Y955079D01*
X675679Y958437D01*
X673861Y962825D01*
X673861Y967575D01*
X675679Y971963D01*
X679037Y975321D01*
X683425Y977139D01*
X688175Y977139D01*
X692563Y975321D01*
X695921Y971963D01*
X697739Y967575D01*
X697739Y962825D01*
X695921Y958437D01*
X692563Y955079D01*
X688175Y953261D01*
X683425Y953261D01*
G37*
%LPD*%
%LPC*%
G36*
X823125Y635761D02*
X823125Y635761D01*
X818737Y637579D01*
X815379Y640937D01*
X813561Y645325D01*
X813561Y650075D01*
X815379Y654463D01*
X818737Y657821D01*
X823125Y659639D01*
X827875Y659639D01*
X832263Y657821D01*
X835621Y654463D01*
X837439Y650075D01*
X837439Y645325D01*
X835621Y640937D01*
X832263Y637579D01*
X827875Y635761D01*
X823125Y635761D01*
G37*
%LPD*%
%LPC*%
G36*
X302425Y623061D02*
X302425Y623061D01*
X298037Y624879D01*
X294679Y628237D01*
X292861Y632625D01*
X292861Y637375D01*
X294679Y641763D01*
X298037Y645121D01*
X302425Y646939D01*
X307175Y646939D01*
X311563Y645121D01*
X314921Y641763D01*
X316739Y637375D01*
X316739Y632625D01*
X314921Y628237D01*
X311563Y624879D01*
X307175Y623061D01*
X302425Y623061D01*
G37*
%LPD*%
%LPC*%
G36*
X48425Y38861D02*
X48425Y38861D01*
X44037Y40679D01*
X40679Y44037D01*
X38861Y48425D01*
X38861Y53175D01*
X40679Y57563D01*
X44037Y60921D01*
X48425Y62739D01*
X53175Y62739D01*
X57563Y60921D01*
X60921Y57563D01*
X62739Y53175D01*
X62739Y48425D01*
X60921Y44037D01*
X57563Y40679D01*
X53175Y38861D01*
X48425Y38861D01*
G37*
%LPD*%
%LPC*%
G36*
X48425Y165861D02*
X48425Y165861D01*
X44037Y167679D01*
X40679Y171037D01*
X38861Y175425D01*
X38861Y180175D01*
X40679Y184563D01*
X44037Y187921D01*
X48425Y189739D01*
X53175Y189739D01*
X57563Y187921D01*
X60921Y184563D01*
X62739Y180175D01*
X62739Y175425D01*
X60921Y171037D01*
X57563Y167679D01*
X53175Y165861D01*
X48425Y165861D01*
G37*
%LPD*%
%LPC*%
G36*
X48425Y140461D02*
X48425Y140461D01*
X44037Y142279D01*
X40679Y145637D01*
X38861Y150025D01*
X38861Y154775D01*
X40679Y159163D01*
X44037Y162521D01*
X48425Y164339D01*
X53175Y164339D01*
X57563Y162521D01*
X60921Y159163D01*
X62739Y154775D01*
X62739Y150025D01*
X60921Y145637D01*
X57563Y142279D01*
X53175Y140461D01*
X48425Y140461D01*
G37*
%LPD*%
%LPC*%
G36*
X823125Y610361D02*
X823125Y610361D01*
X818737Y612179D01*
X815379Y615537D01*
X813561Y619925D01*
X813561Y624675D01*
X815379Y629063D01*
X818737Y632421D01*
X823125Y634239D01*
X827875Y634239D01*
X832263Y632421D01*
X835621Y629063D01*
X837439Y624675D01*
X837439Y619925D01*
X835621Y615537D01*
X832263Y612179D01*
X827875Y610361D01*
X823125Y610361D01*
G37*
%LPD*%
%LPC*%
G36*
X48425Y115061D02*
X48425Y115061D01*
X44037Y116879D01*
X40679Y120237D01*
X38861Y124625D01*
X38861Y129375D01*
X40679Y133763D01*
X44037Y137121D01*
X48425Y138939D01*
X53175Y138939D01*
X57563Y137121D01*
X60921Y133763D01*
X62739Y129375D01*
X62739Y124625D01*
X60921Y120237D01*
X57563Y116879D01*
X53175Y115061D01*
X48425Y115061D01*
G37*
%LPD*%
%LPC*%
G36*
X632625Y102361D02*
X632625Y102361D01*
X628237Y104179D01*
X624879Y107537D01*
X623061Y111925D01*
X623061Y116675D01*
X624879Y121063D01*
X628237Y124421D01*
X632625Y126239D01*
X637375Y126239D01*
X641763Y124421D01*
X645121Y121063D01*
X646939Y116675D01*
X646939Y111925D01*
X645121Y107537D01*
X641763Y104179D01*
X637375Y102361D01*
X632625Y102361D01*
G37*
%LPD*%
%LPC*%
G36*
X111925Y902461D02*
X111925Y902461D01*
X107537Y904279D01*
X104179Y907637D01*
X102361Y912025D01*
X102361Y916775D01*
X104179Y921163D01*
X107537Y924521D01*
X111925Y926339D01*
X116675Y926339D01*
X121063Y924521D01*
X124421Y921163D01*
X126239Y916775D01*
X126239Y912025D01*
X124421Y907637D01*
X121063Y904279D01*
X116675Y902461D01*
X111925Y902461D01*
G37*
%LPD*%
%LPC*%
G36*
X556425Y584961D02*
X556425Y584961D01*
X552037Y586779D01*
X548679Y590137D01*
X546861Y594525D01*
X546861Y599275D01*
X548679Y603663D01*
X552037Y607021D01*
X556425Y608839D01*
X561175Y608839D01*
X565563Y607021D01*
X568921Y603663D01*
X570739Y599275D01*
X570739Y594525D01*
X568921Y590137D01*
X565563Y586779D01*
X561175Y584961D01*
X556425Y584961D01*
G37*
%LPD*%
%LPC*%
G36*
X531025Y584961D02*
X531025Y584961D01*
X526637Y586779D01*
X523279Y590137D01*
X521461Y594525D01*
X521461Y599275D01*
X523279Y603663D01*
X526637Y607021D01*
X531025Y608839D01*
X535775Y608839D01*
X540163Y607021D01*
X543521Y603663D01*
X545339Y599275D01*
X545339Y594525D01*
X543521Y590137D01*
X540163Y586779D01*
X535775Y584961D01*
X531025Y584961D01*
G37*
%LPD*%
%LPC*%
G36*
X505625Y584961D02*
X505625Y584961D01*
X501237Y586779D01*
X497879Y590137D01*
X496061Y594525D01*
X496061Y599275D01*
X497879Y603663D01*
X501237Y607021D01*
X505625Y608839D01*
X510375Y608839D01*
X514763Y607021D01*
X518121Y603663D01*
X519939Y599275D01*
X519939Y594525D01*
X518121Y590137D01*
X514763Y586779D01*
X510375Y584961D01*
X505625Y584961D01*
G37*
%LPD*%
%LPC*%
G36*
X48425Y89661D02*
X48425Y89661D01*
X44037Y91479D01*
X40679Y94837D01*
X38861Y99225D01*
X38861Y103975D01*
X40679Y108363D01*
X44037Y111721D01*
X48425Y113539D01*
X53175Y113539D01*
X57563Y111721D01*
X60921Y108363D01*
X62739Y103975D01*
X62739Y99225D01*
X60921Y94837D01*
X57563Y91479D01*
X53175Y89661D01*
X48425Y89661D01*
G37*
%LPD*%
%LPC*%
G36*
X772325Y889761D02*
X772325Y889761D01*
X767937Y891579D01*
X764579Y894937D01*
X762761Y899325D01*
X762761Y904075D01*
X764579Y908463D01*
X767937Y911821D01*
X772325Y913639D01*
X777075Y913639D01*
X781463Y911821D01*
X784821Y908463D01*
X786639Y904075D01*
X786639Y899325D01*
X784821Y894937D01*
X781463Y891579D01*
X777075Y889761D01*
X772325Y889761D01*
G37*
%LPD*%
%LPC*%
G36*
X823125Y889761D02*
X823125Y889761D01*
X818737Y891579D01*
X815379Y894937D01*
X813561Y899325D01*
X813561Y904075D01*
X815379Y908463D01*
X818737Y911821D01*
X823125Y913639D01*
X827875Y913639D01*
X832263Y911821D01*
X835621Y908463D01*
X837439Y904075D01*
X837439Y899325D01*
X835621Y894937D01*
X832263Y891579D01*
X827875Y889761D01*
X823125Y889761D01*
G37*
%LPD*%
%LPC*%
G36*
X797725Y889761D02*
X797725Y889761D01*
X793337Y891579D01*
X789979Y894937D01*
X788161Y899325D01*
X788161Y904075D01*
X789979Y908463D01*
X793337Y911821D01*
X797725Y913639D01*
X802475Y913639D01*
X806863Y911821D01*
X810221Y908463D01*
X812039Y904075D01*
X812039Y899325D01*
X810221Y894937D01*
X806863Y891579D01*
X802475Y889761D01*
X797725Y889761D01*
G37*
%LPD*%
%LPC*%
G36*
X48425Y64261D02*
X48425Y64261D01*
X44037Y66079D01*
X40679Y69437D01*
X38861Y73825D01*
X38861Y78575D01*
X40679Y82963D01*
X44037Y86321D01*
X48425Y88139D01*
X53175Y88139D01*
X57563Y86321D01*
X60921Y82963D01*
X62739Y78575D01*
X62739Y73825D01*
X60921Y69437D01*
X57563Y66079D01*
X53175Y64261D01*
X48425Y64261D01*
G37*
%LPD*%
%LPC*%
G36*
X683425Y432561D02*
X683425Y432561D01*
X679037Y434379D01*
X675679Y437737D01*
X673861Y442125D01*
X673861Y446875D01*
X675679Y451263D01*
X679037Y454621D01*
X683425Y456439D01*
X688175Y456439D01*
X692563Y454621D01*
X695921Y451263D01*
X697739Y446875D01*
X697739Y442125D01*
X695921Y437737D01*
X692563Y434379D01*
X688175Y432561D01*
X683425Y432561D01*
G37*
%LPD*%
%LPC*%
G36*
X658025Y432561D02*
X658025Y432561D01*
X653637Y434379D01*
X650279Y437737D01*
X648461Y442125D01*
X648461Y446875D01*
X650279Y451263D01*
X653637Y454621D01*
X658025Y456439D01*
X662775Y456439D01*
X667163Y454621D01*
X670521Y451263D01*
X672339Y446875D01*
X672339Y442125D01*
X670521Y437737D01*
X667163Y434379D01*
X662775Y432561D01*
X658025Y432561D01*
G37*
%LPD*%
%LPC*%
G36*
X810425Y813561D02*
X810425Y813561D01*
X806037Y815379D01*
X802679Y818737D01*
X800861Y823125D01*
X800861Y827875D01*
X802679Y832263D01*
X806037Y835621D01*
X810425Y837439D01*
X815175Y837439D01*
X819563Y835621D01*
X822921Y832263D01*
X824739Y827875D01*
X824739Y823125D01*
X822921Y818737D01*
X819563Y815379D01*
X815175Y813561D01*
X810425Y813561D01*
G37*
%LPD*%
%LPC*%
G36*
X734225Y813561D02*
X734225Y813561D01*
X729837Y815379D01*
X726479Y818737D01*
X724661Y823125D01*
X724661Y827875D01*
X726479Y832263D01*
X729837Y835621D01*
X734225Y837439D01*
X738975Y837439D01*
X743363Y835621D01*
X746721Y832263D01*
X748539Y827875D01*
X748539Y823125D01*
X746721Y818737D01*
X743363Y815379D01*
X738975Y813561D01*
X734225Y813561D01*
G37*
%LPD*%
%LPC*%
G36*
X683425Y813561D02*
X683425Y813561D01*
X679037Y815379D01*
X675679Y818737D01*
X673861Y823125D01*
X673861Y827875D01*
X675679Y832263D01*
X679037Y835621D01*
X683425Y837439D01*
X688175Y837439D01*
X692563Y835621D01*
X695921Y832263D01*
X697739Y827875D01*
X697739Y823125D01*
X695921Y818737D01*
X692563Y815379D01*
X688175Y813561D01*
X683425Y813561D01*
G37*
%LPD*%
%LPC*%
G36*
X632625Y432561D02*
X632625Y432561D01*
X628237Y434379D01*
X624879Y437737D01*
X623061Y442125D01*
X623061Y446875D01*
X624879Y451263D01*
X628237Y454621D01*
X632625Y456439D01*
X637375Y456439D01*
X641763Y454621D01*
X645121Y451263D01*
X646939Y446875D01*
X646939Y442125D01*
X645121Y437737D01*
X641763Y434379D01*
X637375Y432561D01*
X632625Y432561D01*
G37*
%LPD*%
%LPC*%
G36*
X607225Y432561D02*
X607225Y432561D01*
X602837Y434379D01*
X599479Y437737D01*
X597661Y442125D01*
X597661Y446875D01*
X599479Y451263D01*
X602837Y454621D01*
X607225Y456439D01*
X611975Y456439D01*
X616363Y454621D01*
X619721Y451263D01*
X621539Y446875D01*
X621539Y442125D01*
X619721Y437737D01*
X616363Y434379D01*
X611975Y432561D01*
X607225Y432561D01*
G37*
%LPD*%
%LPC*%
G36*
X683425Y407161D02*
X683425Y407161D01*
X679037Y408979D01*
X675679Y412337D01*
X673861Y416725D01*
X673861Y421475D01*
X675679Y425863D01*
X679037Y429221D01*
X683425Y431039D01*
X688175Y431039D01*
X692563Y429221D01*
X695921Y425863D01*
X697739Y421475D01*
X697739Y416725D01*
X695921Y412337D01*
X692563Y408979D01*
X688175Y407161D01*
X683425Y407161D01*
G37*
%LPD*%
%LPC*%
G36*
X658025Y407161D02*
X658025Y407161D01*
X653637Y408979D01*
X650279Y412337D01*
X648461Y416725D01*
X648461Y421475D01*
X650279Y425863D01*
X653637Y429221D01*
X658025Y431039D01*
X662775Y431039D01*
X667163Y429221D01*
X670521Y425863D01*
X672339Y421475D01*
X672339Y416725D01*
X670521Y412337D01*
X667163Y408979D01*
X662775Y407161D01*
X658025Y407161D01*
G37*
%LPD*%
%LPC*%
G36*
X632625Y407161D02*
X632625Y407161D01*
X628237Y408979D01*
X624879Y412337D01*
X623061Y416725D01*
X623061Y421475D01*
X624879Y425863D01*
X628237Y429221D01*
X632625Y431039D01*
X637375Y431039D01*
X641763Y429221D01*
X645121Y425863D01*
X646939Y421475D01*
X646939Y416725D01*
X645121Y412337D01*
X641763Y408979D01*
X637375Y407161D01*
X632625Y407161D01*
G37*
%LPD*%
%LPC*%
G36*
X607225Y407161D02*
X607225Y407161D01*
X602837Y408979D01*
X599479Y412337D01*
X597661Y416725D01*
X597661Y421475D01*
X599479Y425863D01*
X602837Y429221D01*
X607225Y431039D01*
X611975Y431039D01*
X616363Y429221D01*
X619721Y425863D01*
X621539Y421475D01*
X621539Y416725D01*
X619721Y412337D01*
X616363Y408979D01*
X611975Y407161D01*
X607225Y407161D01*
G37*
%LPD*%
%LPC*%
G36*
X35725Y343661D02*
X35725Y343661D01*
X31337Y345479D01*
X27979Y348837D01*
X26161Y353225D01*
X26161Y357975D01*
X27979Y362363D01*
X31337Y365721D01*
X35725Y367539D01*
X40475Y367539D01*
X44863Y365721D01*
X48221Y362363D01*
X50039Y357975D01*
X50039Y353225D01*
X48221Y348837D01*
X44863Y345479D01*
X40475Y343661D01*
X35725Y343661D01*
G37*
%LPD*%
%LPC*%
G36*
X429425Y483361D02*
X429425Y483361D01*
X425037Y485179D01*
X421679Y488537D01*
X419861Y492925D01*
X419861Y497675D01*
X421679Y502063D01*
X425037Y505421D01*
X429425Y507239D01*
X434175Y507239D01*
X438563Y505421D01*
X441921Y502063D01*
X443739Y497675D01*
X443739Y492925D01*
X441921Y488537D01*
X438563Y485179D01*
X434175Y483361D01*
X429425Y483361D01*
G37*
%LPD*%
%LPC*%
G36*
X353225Y483361D02*
X353225Y483361D01*
X348837Y485179D01*
X345479Y488537D01*
X343661Y492925D01*
X343661Y497675D01*
X345479Y502063D01*
X348837Y505421D01*
X353225Y507239D01*
X357975Y507239D01*
X362363Y505421D01*
X365721Y502063D01*
X367539Y497675D01*
X367539Y492925D01*
X365721Y488537D01*
X362363Y485179D01*
X357975Y483361D01*
X353225Y483361D01*
G37*
%LPD*%
%LPC*%
G36*
X327825Y483361D02*
X327825Y483361D01*
X323437Y485179D01*
X320079Y488537D01*
X318261Y492925D01*
X318261Y497675D01*
X320079Y502063D01*
X323437Y505421D01*
X327825Y507239D01*
X332575Y507239D01*
X336963Y505421D01*
X340321Y502063D01*
X342139Y497675D01*
X342139Y492925D01*
X340321Y488537D01*
X336963Y485179D01*
X332575Y483361D01*
X327825Y483361D01*
G37*
%LPD*%
%LPC*%
G36*
X302425Y483361D02*
X302425Y483361D01*
X298037Y485179D01*
X294679Y488537D01*
X292861Y492925D01*
X292861Y497675D01*
X294679Y502063D01*
X298037Y505421D01*
X302425Y507239D01*
X307175Y507239D01*
X311563Y505421D01*
X314921Y502063D01*
X316739Y497675D01*
X316739Y492925D01*
X314921Y488537D01*
X311563Y485179D01*
X307175Y483361D01*
X302425Y483361D01*
G37*
%LPD*%
%LPC*%
G36*
X531025Y381761D02*
X531025Y381761D01*
X526637Y383579D01*
X523279Y386937D01*
X521461Y391325D01*
X521461Y396075D01*
X523279Y400463D01*
X526637Y403821D01*
X531025Y405639D01*
X535775Y405639D01*
X540163Y403821D01*
X543521Y400463D01*
X545339Y396075D01*
X545339Y391325D01*
X543521Y386937D01*
X540163Y383579D01*
X535775Y381761D01*
X531025Y381761D01*
G37*
%LPD*%
%LPC*%
G36*
X150253Y421004D02*
X150253Y421004D01*
X146285Y422648D01*
X143248Y425685D01*
X141604Y429653D01*
X141604Y433947D01*
X143248Y437915D01*
X146285Y440952D01*
X150253Y442596D01*
X154547Y442596D01*
X158515Y440952D01*
X161552Y437915D01*
X163196Y433947D01*
X163196Y429653D01*
X161552Y425685D01*
X158515Y422648D01*
X154547Y421004D01*
X150253Y421004D01*
G37*
%LPD*%
%LPC*%
G36*
X99453Y522604D02*
X99453Y522604D01*
X95485Y524248D01*
X92448Y527285D01*
X90804Y531253D01*
X90804Y535547D01*
X92448Y539515D01*
X95485Y542552D01*
X99453Y544196D01*
X103747Y544196D01*
X107715Y542552D01*
X110752Y539515D01*
X112396Y535547D01*
X112396Y531253D01*
X110752Y527285D01*
X107715Y524248D01*
X103747Y522604D01*
X99453Y522604D01*
G37*
%LPD*%
%LPC*%
G36*
X150253Y484504D02*
X150253Y484504D01*
X146285Y486148D01*
X143248Y489185D01*
X141604Y493153D01*
X141604Y497447D01*
X143248Y501415D01*
X146285Y504452D01*
X150253Y506096D01*
X154547Y506096D01*
X158515Y504452D01*
X161552Y501415D01*
X163196Y497447D01*
X163196Y493153D01*
X161552Y489185D01*
X158515Y486148D01*
X154547Y484504D01*
X150253Y484504D01*
G37*
%LPD*%
%LPC*%
G36*
X99453Y421004D02*
X99453Y421004D01*
X95485Y422648D01*
X92448Y425685D01*
X90804Y429653D01*
X90804Y433947D01*
X92448Y437915D01*
X95485Y440952D01*
X99453Y442596D01*
X103747Y442596D01*
X107715Y440952D01*
X110752Y437915D01*
X112396Y433947D01*
X112396Y429653D01*
X110752Y425685D01*
X107715Y422648D01*
X103747Y421004D01*
X99453Y421004D01*
G37*
%LPD*%
%LPC*%
G36*
X531278Y179831D02*
X531278Y179831D01*
X527357Y181455D01*
X524355Y184457D01*
X522731Y188378D01*
X522731Y192622D01*
X524355Y196543D01*
X527357Y199545D01*
X531278Y201169D01*
X535522Y201169D01*
X539443Y199545D01*
X542445Y196543D01*
X544069Y192622D01*
X544069Y188378D01*
X542445Y184457D01*
X539443Y181455D01*
X535522Y179831D01*
X531278Y179831D01*
G37*
%LPD*%
%LPC*%
G36*
X556678Y179831D02*
X556678Y179831D01*
X552757Y181455D01*
X549755Y184457D01*
X548131Y188378D01*
X548131Y192622D01*
X549755Y196543D01*
X552757Y199545D01*
X556678Y201169D01*
X560922Y201169D01*
X564843Y199545D01*
X567845Y196543D01*
X569469Y192622D01*
X569469Y188378D01*
X567845Y184457D01*
X564843Y181455D01*
X560922Y179831D01*
X556678Y179831D01*
G37*
%LPD*%
%LPC*%
G36*
X226478Y179831D02*
X226478Y179831D01*
X222557Y181455D01*
X219555Y184457D01*
X217931Y188378D01*
X217931Y192622D01*
X219555Y196543D01*
X222557Y199545D01*
X226478Y201169D01*
X230722Y201169D01*
X234643Y199545D01*
X237645Y196543D01*
X239269Y192622D01*
X239269Y188378D01*
X237645Y184457D01*
X234643Y181455D01*
X230722Y179831D01*
X226478Y179831D01*
G37*
%LPD*%
%LPC*%
G36*
X251878Y179831D02*
X251878Y179831D01*
X247957Y181455D01*
X244955Y184457D01*
X243331Y188378D01*
X243331Y192622D01*
X244955Y196543D01*
X247957Y199545D01*
X251878Y201169D01*
X256122Y201169D01*
X260043Y199545D01*
X263045Y196543D01*
X264669Y192622D01*
X264669Y188378D01*
X263045Y184457D01*
X260043Y181455D01*
X256122Y179831D01*
X251878Y179831D01*
G37*
%LPD*%
%LPC*%
G36*
X277278Y179831D02*
X277278Y179831D01*
X273357Y181455D01*
X270355Y184457D01*
X268731Y188378D01*
X268731Y192622D01*
X270355Y196543D01*
X273357Y199545D01*
X277278Y201169D01*
X281522Y201169D01*
X285443Y199545D01*
X288445Y196543D01*
X290069Y192622D01*
X290069Y188378D01*
X288445Y184457D01*
X285443Y181455D01*
X281522Y179831D01*
X277278Y179831D01*
G37*
%LPD*%
%LPC*%
G36*
X302678Y179831D02*
X302678Y179831D01*
X298757Y181455D01*
X295755Y184457D01*
X294131Y188378D01*
X294131Y192622D01*
X295755Y196543D01*
X298757Y199545D01*
X302678Y201169D01*
X306922Y201169D01*
X310843Y199545D01*
X313845Y196543D01*
X315469Y192622D01*
X315469Y188378D01*
X313845Y184457D01*
X310843Y181455D01*
X306922Y179831D01*
X302678Y179831D01*
G37*
%LPD*%
%LPC*%
G36*
X328078Y179831D02*
X328078Y179831D01*
X324157Y181455D01*
X321155Y184457D01*
X319531Y188378D01*
X319531Y192622D01*
X321155Y196543D01*
X324157Y199545D01*
X328078Y201169D01*
X332322Y201169D01*
X336243Y199545D01*
X339245Y196543D01*
X340869Y192622D01*
X340869Y188378D01*
X339245Y184457D01*
X336243Y181455D01*
X332322Y179831D01*
X328078Y179831D01*
G37*
%LPD*%
%LPC*%
G36*
X353478Y179831D02*
X353478Y179831D01*
X349557Y181455D01*
X346555Y184457D01*
X344931Y188378D01*
X344931Y192622D01*
X346555Y196543D01*
X349557Y199545D01*
X353478Y201169D01*
X357722Y201169D01*
X361643Y199545D01*
X364645Y196543D01*
X366269Y192622D01*
X366269Y188378D01*
X364645Y184457D01*
X361643Y181455D01*
X357722Y179831D01*
X353478Y179831D01*
G37*
%LPD*%
%LPC*%
G36*
X378878Y179831D02*
X378878Y179831D01*
X374957Y181455D01*
X371955Y184457D01*
X370331Y188378D01*
X370331Y192622D01*
X371955Y196543D01*
X374957Y199545D01*
X378878Y201169D01*
X383122Y201169D01*
X387043Y199545D01*
X390045Y196543D01*
X391669Y192622D01*
X391669Y188378D01*
X390045Y184457D01*
X387043Y181455D01*
X383122Y179831D01*
X378878Y179831D01*
G37*
%LPD*%
%LPC*%
G36*
X429678Y179831D02*
X429678Y179831D01*
X425757Y181455D01*
X422755Y184457D01*
X421131Y188378D01*
X421131Y192622D01*
X422755Y196543D01*
X425757Y199545D01*
X429678Y201169D01*
X433922Y201169D01*
X437843Y199545D01*
X440845Y196543D01*
X442469Y192622D01*
X442469Y188378D01*
X440845Y184457D01*
X437843Y181455D01*
X433922Y179831D01*
X429678Y179831D01*
G37*
%LPD*%
%LPC*%
G36*
X251878Y256031D02*
X251878Y256031D01*
X247957Y257655D01*
X244955Y260657D01*
X243331Y264578D01*
X243331Y268822D01*
X244955Y272743D01*
X247957Y275745D01*
X251878Y277369D01*
X256122Y277369D01*
X260043Y275745D01*
X263045Y272743D01*
X264669Y268822D01*
X264669Y264578D01*
X263045Y260657D01*
X260043Y257655D01*
X256122Y256031D01*
X251878Y256031D01*
G37*
%LPD*%
%LPC*%
G36*
X455078Y179831D02*
X455078Y179831D01*
X451157Y181455D01*
X448155Y184457D01*
X446531Y188378D01*
X446531Y192622D01*
X448155Y196543D01*
X451157Y199545D01*
X455078Y201169D01*
X459322Y201169D01*
X463243Y199545D01*
X466245Y196543D01*
X467869Y192622D01*
X467869Y188378D01*
X466245Y184457D01*
X463243Y181455D01*
X459322Y179831D01*
X455078Y179831D01*
G37*
%LPD*%
%LPC*%
G36*
X277278Y256031D02*
X277278Y256031D01*
X273357Y257655D01*
X270355Y260657D01*
X268731Y264578D01*
X268731Y268822D01*
X270355Y272743D01*
X273357Y275745D01*
X277278Y277369D01*
X281522Y277369D01*
X285443Y275745D01*
X288445Y272743D01*
X290069Y268822D01*
X290069Y264578D01*
X288445Y260657D01*
X285443Y257655D01*
X281522Y256031D01*
X277278Y256031D01*
G37*
%LPD*%
%LPC*%
G36*
X302678Y256031D02*
X302678Y256031D01*
X298757Y257655D01*
X295755Y260657D01*
X294131Y264578D01*
X294131Y268822D01*
X295755Y272743D01*
X298757Y275745D01*
X302678Y277369D01*
X306922Y277369D01*
X310843Y275745D01*
X313845Y272743D01*
X315469Y268822D01*
X315469Y264578D01*
X313845Y260657D01*
X310843Y257655D01*
X306922Y256031D01*
X302678Y256031D01*
G37*
%LPD*%
%LPC*%
G36*
X328078Y256031D02*
X328078Y256031D01*
X324157Y257655D01*
X321155Y260657D01*
X319531Y264578D01*
X319531Y268822D01*
X321155Y272743D01*
X324157Y275745D01*
X328078Y277369D01*
X332322Y277369D01*
X336243Y275745D01*
X339245Y272743D01*
X340869Y268822D01*
X340869Y264578D01*
X339245Y260657D01*
X336243Y257655D01*
X332322Y256031D01*
X328078Y256031D01*
G37*
%LPD*%
%LPC*%
G36*
X480478Y179831D02*
X480478Y179831D01*
X476557Y181455D01*
X473555Y184457D01*
X471931Y188378D01*
X471931Y192622D01*
X473555Y196543D01*
X476557Y199545D01*
X480478Y201169D01*
X484722Y201169D01*
X488643Y199545D01*
X491645Y196543D01*
X493269Y192622D01*
X493269Y188378D01*
X491645Y184457D01*
X488643Y181455D01*
X484722Y179831D01*
X480478Y179831D01*
G37*
%LPD*%
%LPC*%
G36*
X353478Y256031D02*
X353478Y256031D01*
X349557Y257655D01*
X346555Y260657D01*
X344931Y264578D01*
X344931Y268822D01*
X346555Y272743D01*
X349557Y275745D01*
X353478Y277369D01*
X357722Y277369D01*
X361643Y275745D01*
X364645Y272743D01*
X366269Y268822D01*
X366269Y264578D01*
X364645Y260657D01*
X361643Y257655D01*
X357722Y256031D01*
X353478Y256031D01*
G37*
%LPD*%
%LPC*%
G36*
X404278Y256031D02*
X404278Y256031D01*
X400357Y257655D01*
X397355Y260657D01*
X395731Y264578D01*
X395731Y268822D01*
X397355Y272743D01*
X400357Y275745D01*
X404278Y277369D01*
X408522Y277369D01*
X412443Y275745D01*
X415445Y272743D01*
X417069Y268822D01*
X417069Y264578D01*
X415445Y260657D01*
X412443Y257655D01*
X408522Y256031D01*
X404278Y256031D01*
G37*
%LPD*%
%LPC*%
G36*
X429678Y256031D02*
X429678Y256031D01*
X425757Y257655D01*
X422755Y260657D01*
X421131Y264578D01*
X421131Y268822D01*
X422755Y272743D01*
X425757Y275745D01*
X429678Y277369D01*
X433922Y277369D01*
X437843Y275745D01*
X440845Y272743D01*
X442469Y268822D01*
X442469Y264578D01*
X440845Y260657D01*
X437843Y257655D01*
X433922Y256031D01*
X429678Y256031D01*
G37*
%LPD*%
%LPC*%
G36*
X505878Y256031D02*
X505878Y256031D01*
X501957Y257655D01*
X498955Y260657D01*
X497331Y264578D01*
X497331Y268822D01*
X498955Y272743D01*
X501957Y275745D01*
X505878Y277369D01*
X510122Y277369D01*
X514043Y275745D01*
X517045Y272743D01*
X518669Y268822D01*
X518669Y264578D01*
X517045Y260657D01*
X514043Y257655D01*
X510122Y256031D01*
X505878Y256031D01*
G37*
%LPD*%
%LPC*%
G36*
X531278Y256031D02*
X531278Y256031D01*
X527357Y257655D01*
X524355Y260657D01*
X522731Y264578D01*
X522731Y268822D01*
X524355Y272743D01*
X527357Y275745D01*
X531278Y277369D01*
X535522Y277369D01*
X539443Y275745D01*
X542445Y272743D01*
X544069Y268822D01*
X544069Y264578D01*
X542445Y260657D01*
X539443Y257655D01*
X535522Y256031D01*
X531278Y256031D01*
G37*
%LPD*%
%LPC*%
G36*
X556678Y256031D02*
X556678Y256031D01*
X552757Y257655D01*
X549755Y260657D01*
X548131Y264578D01*
X548131Y268822D01*
X549755Y272743D01*
X552757Y275745D01*
X556678Y277369D01*
X560922Y277369D01*
X564843Y275745D01*
X567845Y272743D01*
X569469Y268822D01*
X569469Y264578D01*
X567845Y260657D01*
X564843Y257655D01*
X560922Y256031D01*
X556678Y256031D01*
G37*
%LPD*%
%LPC*%
G36*
X455078Y256031D02*
X455078Y256031D01*
X451157Y257655D01*
X448155Y260657D01*
X446531Y264578D01*
X446531Y268822D01*
X448155Y272743D01*
X451157Y275745D01*
X455078Y277369D01*
X459322Y277369D01*
X463243Y275745D01*
X466245Y272743D01*
X467869Y268822D01*
X467869Y264578D01*
X466245Y260657D01*
X463243Y257655D01*
X459322Y256031D01*
X455078Y256031D01*
G37*
%LPD*%
%LPC*%
G36*
X480478Y256031D02*
X480478Y256031D01*
X476557Y257655D01*
X473555Y260657D01*
X471931Y264578D01*
X471931Y268822D01*
X473555Y272743D01*
X476557Y275745D01*
X480478Y277369D01*
X484722Y277369D01*
X488643Y275745D01*
X491645Y272743D01*
X493269Y268822D01*
X493269Y264578D01*
X491645Y260657D01*
X488643Y257655D01*
X484722Y256031D01*
X480478Y256031D01*
G37*
%LPD*%
%LPC*%
G36*
X505878Y179831D02*
X505878Y179831D01*
X501957Y181455D01*
X498955Y184457D01*
X497331Y188378D01*
X497331Y192622D01*
X498955Y196543D01*
X501957Y199545D01*
X505878Y201169D01*
X510122Y201169D01*
X514043Y199545D01*
X517045Y196543D01*
X518669Y192622D01*
X518669Y188378D01*
X517045Y184457D01*
X514043Y181455D01*
X510122Y179831D01*
X505878Y179831D01*
G37*
%LPD*%
%LPC*%
G36*
X226478Y256031D02*
X226478Y256031D01*
X222557Y257655D01*
X219555Y260657D01*
X217931Y264578D01*
X217931Y268822D01*
X219555Y272743D01*
X222557Y275745D01*
X226478Y277369D01*
X230722Y277369D01*
X234643Y275745D01*
X237645Y272743D01*
X239269Y268822D01*
X239269Y264578D01*
X237645Y260657D01*
X234643Y257655D01*
X230722Y256031D01*
X226478Y256031D01*
G37*
%LPD*%
%LPC*%
G36*
X826539Y133923D02*
X826539Y133923D01*
X826539Y155489D01*
X828894Y155224D01*
X830679Y154817D01*
X831425Y154646D01*
X833875Y153789D01*
X836215Y152662D01*
X838413Y151281D01*
X840443Y149663D01*
X842279Y147827D01*
X843897Y145797D01*
X845278Y143599D01*
X846405Y141259D01*
X847262Y138809D01*
X847840Y136278D01*
X848105Y133923D01*
X826539Y133923D01*
G37*
%LPD*%
%LPC*%
G36*
X789177Y92493D02*
X789177Y92493D01*
X789177Y114059D01*
X791532Y113794D01*
X791904Y113709D01*
X794063Y113216D01*
X796513Y112359D01*
X798853Y111232D01*
X801051Y109851D01*
X803081Y108233D01*
X804917Y106397D01*
X806535Y104367D01*
X807916Y102169D01*
X809043Y99829D01*
X809900Y97379D01*
X810478Y94848D01*
X810743Y92493D01*
X789177Y92493D01*
G37*
%LPD*%
%LPC*%
G36*
X801927Y133923D02*
X801927Y133923D01*
X802192Y136278D01*
X802770Y138809D01*
X803627Y141259D01*
X804754Y143599D01*
X806135Y145797D01*
X807753Y147827D01*
X809589Y149663D01*
X811619Y151281D01*
X813817Y152662D01*
X816157Y153789D01*
X818607Y154646D01*
X821138Y155224D01*
X823493Y155489D01*
X823493Y133923D01*
X801927Y133923D01*
G37*
%LPD*%
%LPC*%
G36*
X826539Y130877D02*
X826539Y130877D01*
X848105Y130877D01*
X847840Y128522D01*
X847262Y125991D01*
X846405Y123541D01*
X845278Y121201D01*
X843897Y119003D01*
X842279Y116973D01*
X840443Y115137D01*
X838413Y113519D01*
X836215Y112138D01*
X833875Y111011D01*
X831425Y110154D01*
X828894Y109576D01*
X826539Y109311D01*
X826539Y130877D01*
G37*
%LPD*%
%LPC*%
G36*
X764565Y92493D02*
X764565Y92493D01*
X764830Y94848D01*
X765408Y97379D01*
X766265Y99829D01*
X767392Y102169D01*
X768773Y104367D01*
X770391Y106397D01*
X772227Y108233D01*
X774257Y109851D01*
X776455Y111232D01*
X778795Y112359D01*
X781245Y113216D01*
X783776Y113794D01*
X786131Y114059D01*
X786131Y92493D01*
X764565Y92493D01*
G37*
%LPD*%
%LPC*%
G36*
X789177Y89447D02*
X789177Y89447D01*
X810743Y89447D01*
X810478Y87092D01*
X809900Y84561D01*
X809043Y82111D01*
X807916Y79771D01*
X806535Y77573D01*
X804917Y75543D01*
X803081Y73707D01*
X801051Y72089D01*
X798853Y70708D01*
X796513Y69581D01*
X794063Y68724D01*
X791532Y68146D01*
X789177Y67881D01*
X789177Y89447D01*
G37*
%LPD*%
%LPC*%
G36*
X821138Y109576D02*
X821138Y109576D01*
X819867Y109866D01*
X818607Y110154D01*
X816157Y111011D01*
X813817Y112138D01*
X811619Y113519D01*
X809589Y115137D01*
X807753Y116973D01*
X806135Y119003D01*
X804754Y121201D01*
X803627Y123541D01*
X802770Y125991D01*
X802192Y128522D01*
X801927Y130877D01*
X823493Y130877D01*
X823493Y109311D01*
X821138Y109576D01*
G37*
%LPD*%
%LPC*%
G36*
X783776Y68146D02*
X783776Y68146D01*
X781245Y68724D01*
X778795Y69581D01*
X776455Y70708D01*
X774257Y72089D01*
X772227Y73707D01*
X770391Y75543D01*
X768773Y77573D01*
X767392Y79771D01*
X766265Y82111D01*
X765408Y84561D01*
X764830Y87092D01*
X764565Y89447D01*
X786131Y89447D01*
X786131Y67881D01*
X783776Y68146D01*
G37*
%LPD*%
%LPC*%
G36*
X301012Y829055D02*
X301012Y829055D01*
X295655Y834412D01*
X295655Y841988D01*
X301012Y847345D01*
X308588Y847345D01*
X313945Y841988D01*
X313945Y834412D01*
X308588Y829055D01*
X301012Y829055D01*
G37*
%LPD*%
%LPC*%
G36*
X631212Y956055D02*
X631212Y956055D01*
X625855Y961412D01*
X625855Y968988D01*
X631212Y974345D01*
X638788Y974345D01*
X644145Y968988D01*
X644145Y961412D01*
X638788Y956055D01*
X631212Y956055D01*
G37*
%LPD*%
%LPC*%
G36*
X529612Y956055D02*
X529612Y956055D01*
X524255Y961412D01*
X524255Y968988D01*
X529612Y974345D01*
X537188Y974345D01*
X542545Y968988D01*
X542545Y961412D01*
X537188Y956055D01*
X529612Y956055D01*
G37*
%LPD*%
%LPC*%
G36*
X59712Y803655D02*
X59712Y803655D01*
X54355Y809012D01*
X54355Y816588D01*
X59712Y821945D01*
X67288Y821945D01*
X72645Y816588D01*
X72645Y809012D01*
X67288Y803655D01*
X59712Y803655D01*
G37*
%LPD*%
%LPC*%
G36*
X59712Y905255D02*
X59712Y905255D01*
X54355Y910612D01*
X54355Y918188D01*
X59712Y923545D01*
X67288Y923545D01*
X72645Y918188D01*
X72645Y910612D01*
X67288Y905255D01*
X59712Y905255D01*
G37*
%LPD*%
%LPC*%
G36*
X301012Y930655D02*
X301012Y930655D01*
X295655Y936012D01*
X295655Y943588D01*
X301012Y948945D01*
X308588Y948945D01*
X313945Y943588D01*
X313945Y936012D01*
X308588Y930655D01*
X301012Y930655D01*
G37*
%LPD*%
%LPC*%
G36*
X355853Y344423D02*
X355853Y344423D01*
X355853Y355518D01*
X357304Y355288D01*
X359205Y354670D01*
X360987Y353763D01*
X362604Y352587D01*
X364017Y351174D01*
X365193Y349557D01*
X366100Y347775D01*
X366718Y345874D01*
X366948Y344423D01*
X355853Y344423D01*
G37*
%LPD*%
%LPC*%
G36*
X341712Y344423D02*
X341712Y344423D01*
X341942Y345874D01*
X342560Y347775D01*
X343467Y349557D01*
X344643Y351174D01*
X346056Y352587D01*
X347673Y353763D01*
X349455Y354670D01*
X351356Y355288D01*
X352807Y355518D01*
X352807Y344423D01*
X341712Y344423D01*
G37*
%LPD*%
%LPC*%
G36*
X355853Y341377D02*
X355853Y341377D01*
X366948Y341377D01*
X366718Y339926D01*
X366100Y338025D01*
X365193Y336243D01*
X364017Y334626D01*
X362604Y333213D01*
X360987Y332037D01*
X359205Y331130D01*
X357304Y330512D01*
X355853Y330282D01*
X355853Y341377D01*
G37*
%LPD*%
%LPC*%
G36*
X351356Y330512D02*
X351356Y330512D01*
X349455Y331130D01*
X347673Y332037D01*
X346056Y333213D01*
X344643Y334626D01*
X343467Y336243D01*
X342560Y338025D01*
X341942Y339926D01*
X341712Y341377D01*
X352807Y341377D01*
X352807Y330282D01*
X351356Y330512D01*
G37*
%LPD*%
%LPC*%
G36*
X141223Y915923D02*
X141223Y915923D01*
X141223Y926246D01*
X142496Y926045D01*
X144283Y925464D01*
X145957Y924611D01*
X147478Y923506D01*
X148806Y922178D01*
X149911Y920657D01*
X150764Y918983D01*
X151345Y917196D01*
X151546Y915923D01*
X141223Y915923D01*
G37*
%LPD*%
%LPC*%
G36*
X712723Y966723D02*
X712723Y966723D01*
X712723Y977046D01*
X713996Y976845D01*
X715783Y976264D01*
X717457Y975411D01*
X718978Y974306D01*
X720306Y972978D01*
X721411Y971457D01*
X722264Y969783D01*
X722845Y967996D01*
X723046Y966723D01*
X712723Y966723D01*
G37*
%LPD*%
%LPC*%
G36*
X407923Y496823D02*
X407923Y496823D01*
X407923Y507146D01*
X409196Y506945D01*
X410983Y506364D01*
X412657Y505511D01*
X414178Y504406D01*
X415506Y503078D01*
X416611Y501557D01*
X417464Y499883D01*
X418045Y498096D01*
X418246Y496823D01*
X407923Y496823D01*
G37*
%LPD*%
%LPC*%
G36*
X382523Y496823D02*
X382523Y496823D01*
X382523Y507146D01*
X383796Y506945D01*
X385583Y506364D01*
X387257Y505511D01*
X388778Y504406D01*
X390106Y503078D01*
X391211Y501557D01*
X392064Y499883D01*
X392645Y498096D01*
X392846Y496823D01*
X382523Y496823D01*
G37*
%LPD*%
%LPC*%
G36*
X382523Y407923D02*
X382523Y407923D01*
X382523Y418246D01*
X383796Y418045D01*
X385583Y417464D01*
X387257Y416611D01*
X388778Y415506D01*
X390106Y414178D01*
X391211Y412657D01*
X392064Y410983D01*
X392645Y409196D01*
X392846Y407923D01*
X382523Y407923D01*
G37*
%LPD*%
%LPC*%
G36*
X280923Y636523D02*
X280923Y636523D01*
X280923Y646846D01*
X282196Y646645D01*
X283983Y646064D01*
X285657Y645211D01*
X287178Y644106D01*
X288506Y642778D01*
X289611Y641257D01*
X290464Y639583D01*
X291045Y637796D01*
X291246Y636523D01*
X280923Y636523D01*
G37*
%LPD*%
%LPC*%
G36*
X611123Y827023D02*
X611123Y827023D01*
X611123Y837346D01*
X612396Y837145D01*
X614183Y836564D01*
X615857Y835711D01*
X617378Y834606D01*
X618706Y833278D01*
X619811Y831757D01*
X620664Y830083D01*
X621245Y828296D01*
X621446Y827023D01*
X611123Y827023D01*
G37*
%LPD*%
%LPC*%
G36*
X39623Y484123D02*
X39623Y484123D01*
X39623Y494446D01*
X40896Y494245D01*
X42683Y493664D01*
X44357Y492811D01*
X45878Y491706D01*
X47206Y490378D01*
X48311Y488857D01*
X49164Y487183D01*
X49745Y485396D01*
X49946Y484123D01*
X39623Y484123D01*
G37*
%LPD*%
%LPC*%
G36*
X699354Y966723D02*
X699354Y966723D01*
X699555Y967996D01*
X700136Y969783D01*
X700989Y971457D01*
X702094Y972978D01*
X703422Y974306D01*
X704943Y975411D01*
X706617Y976264D01*
X708404Y976845D01*
X709677Y977046D01*
X709677Y966723D01*
X699354Y966723D01*
G37*
%LPD*%
%LPC*%
G36*
X712723Y963677D02*
X712723Y963677D01*
X723046Y963677D01*
X722845Y962404D01*
X722264Y960617D01*
X721411Y958943D01*
X720306Y957422D01*
X718978Y956094D01*
X717457Y954989D01*
X715783Y954136D01*
X713996Y953555D01*
X712723Y953354D01*
X712723Y963677D01*
G37*
%LPD*%
%LPC*%
G36*
X127854Y915923D02*
X127854Y915923D01*
X128055Y917196D01*
X128636Y918983D01*
X129489Y920657D01*
X130594Y922178D01*
X131922Y923506D01*
X133443Y924611D01*
X135117Y925464D01*
X136904Y926045D01*
X138177Y926246D01*
X138177Y915923D01*
X127854Y915923D01*
G37*
%LPD*%
%LPC*%
G36*
X141223Y912877D02*
X141223Y912877D01*
X151546Y912877D01*
X151345Y911604D01*
X150764Y909817D01*
X149911Y908143D01*
X148806Y906622D01*
X147478Y905294D01*
X145957Y904189D01*
X144283Y903336D01*
X142496Y902755D01*
X141223Y902554D01*
X141223Y912877D01*
G37*
%LPD*%
%LPC*%
G36*
X597754Y827023D02*
X597754Y827023D01*
X597955Y828296D01*
X598536Y830083D01*
X599389Y831757D01*
X600494Y833278D01*
X601822Y834606D01*
X603343Y835711D01*
X605017Y836564D01*
X606804Y837145D01*
X608077Y837346D01*
X608077Y827023D01*
X597754Y827023D01*
G37*
%LPD*%
%LPC*%
G36*
X394554Y496823D02*
X394554Y496823D01*
X394755Y498096D01*
X395336Y499883D01*
X396189Y501557D01*
X397294Y503078D01*
X398622Y504406D01*
X400143Y505511D01*
X401817Y506364D01*
X403604Y506945D01*
X404877Y507146D01*
X404877Y496823D01*
X394554Y496823D01*
G37*
%LPD*%
%LPC*%
G36*
X611123Y823977D02*
X611123Y823977D01*
X621446Y823977D01*
X621245Y822704D01*
X620664Y820917D01*
X619811Y819243D01*
X618706Y817722D01*
X617378Y816394D01*
X615857Y815289D01*
X614183Y814436D01*
X612396Y813855D01*
X611123Y813654D01*
X611123Y823977D01*
G37*
%LPD*%
%LPC*%
G36*
X369154Y407923D02*
X369154Y407923D01*
X369355Y409196D01*
X369936Y410983D01*
X370789Y412657D01*
X371894Y414178D01*
X373222Y415506D01*
X374743Y416611D01*
X376417Y417464D01*
X378204Y418045D01*
X379477Y418246D01*
X379477Y407923D01*
X369154Y407923D01*
G37*
%LPD*%
%LPC*%
G36*
X382523Y404877D02*
X382523Y404877D01*
X392846Y404877D01*
X392645Y403604D01*
X392064Y401817D01*
X391211Y400143D01*
X390106Y398622D01*
X388778Y397294D01*
X387257Y396189D01*
X385583Y395336D01*
X383796Y394755D01*
X382523Y394554D01*
X382523Y404877D01*
G37*
%LPD*%
%LPC*%
G36*
X39623Y481077D02*
X39623Y481077D01*
X49946Y481077D01*
X49745Y479804D01*
X49164Y478017D01*
X48311Y476343D01*
X47206Y474822D01*
X45878Y473494D01*
X44357Y472389D01*
X42683Y471536D01*
X40896Y470955D01*
X39623Y470754D01*
X39623Y481077D01*
G37*
%LPD*%
%LPC*%
G36*
X267554Y636523D02*
X267554Y636523D01*
X267755Y637796D01*
X268336Y639583D01*
X269189Y641257D01*
X270294Y642778D01*
X271622Y644106D01*
X273143Y645211D01*
X274817Y646064D01*
X276604Y646645D01*
X277877Y646846D01*
X277877Y636523D01*
X267554Y636523D01*
G37*
%LPD*%
%LPC*%
G36*
X369154Y496823D02*
X369154Y496823D01*
X369355Y498096D01*
X369936Y499883D01*
X370789Y501557D01*
X371894Y503078D01*
X373222Y504406D01*
X374743Y505511D01*
X376417Y506364D01*
X378204Y506945D01*
X379477Y507146D01*
X379477Y496823D01*
X369154Y496823D01*
G37*
%LPD*%
%LPC*%
G36*
X407923Y493777D02*
X407923Y493777D01*
X418246Y493777D01*
X418045Y492504D01*
X417464Y490717D01*
X416611Y489043D01*
X415506Y487522D01*
X414178Y486194D01*
X412657Y485089D01*
X410983Y484236D01*
X409196Y483655D01*
X407923Y483454D01*
X407923Y493777D01*
G37*
%LPD*%
%LPC*%
G36*
X26254Y484123D02*
X26254Y484123D01*
X26455Y485396D01*
X27036Y487183D01*
X27889Y488857D01*
X28994Y490378D01*
X30322Y491706D01*
X31843Y492811D01*
X33517Y493664D01*
X35304Y494245D01*
X36577Y494446D01*
X36577Y484123D01*
X26254Y484123D01*
G37*
%LPD*%
%LPC*%
G36*
X280923Y633477D02*
X280923Y633477D01*
X291246Y633477D01*
X291045Y632204D01*
X290464Y630417D01*
X289611Y628743D01*
X288506Y627222D01*
X287178Y625894D01*
X285657Y624789D01*
X283983Y623936D01*
X282196Y623355D01*
X280923Y623154D01*
X280923Y633477D01*
G37*
%LPD*%
%LPC*%
G36*
X382523Y493777D02*
X382523Y493777D01*
X392846Y493777D01*
X392645Y492504D01*
X392064Y490717D01*
X391211Y489043D01*
X390106Y487522D01*
X388778Y486194D01*
X387257Y485089D01*
X385583Y484236D01*
X383796Y483655D01*
X382523Y483454D01*
X382523Y493777D01*
G37*
%LPD*%
%LPC*%
G36*
X606804Y813855D02*
X606804Y813855D01*
X605017Y814436D01*
X603343Y815289D01*
X601822Y816394D01*
X600494Y817722D01*
X599389Y819243D01*
X598536Y820917D01*
X597955Y822704D01*
X597754Y823977D01*
X608077Y823977D01*
X608077Y813654D01*
X606804Y813855D01*
G37*
%LPD*%
%LPC*%
G36*
X378204Y483655D02*
X378204Y483655D01*
X376417Y484236D01*
X374743Y485089D01*
X373222Y486194D01*
X371894Y487522D01*
X370789Y489043D01*
X369936Y490717D01*
X369355Y492504D01*
X369154Y493777D01*
X379477Y493777D01*
X379477Y483454D01*
X378204Y483655D01*
G37*
%LPD*%
%LPC*%
G36*
X276604Y623355D02*
X276604Y623355D01*
X274817Y623936D01*
X273143Y624789D01*
X271622Y625894D01*
X270294Y627222D01*
X269189Y628743D01*
X268336Y630417D01*
X267755Y632204D01*
X267554Y633477D01*
X277877Y633477D01*
X277877Y623154D01*
X276604Y623355D01*
G37*
%LPD*%
%LPC*%
G36*
X378204Y394755D02*
X378204Y394755D01*
X376417Y395336D01*
X374743Y396189D01*
X373222Y397294D01*
X371894Y398622D01*
X370789Y400143D01*
X369936Y401817D01*
X369355Y403604D01*
X369154Y404877D01*
X379477Y404877D01*
X379477Y394554D01*
X378204Y394755D01*
G37*
%LPD*%
%LPC*%
G36*
X35304Y470955D02*
X35304Y470955D01*
X33517Y471536D01*
X31843Y472389D01*
X30322Y473494D01*
X28994Y474822D01*
X27889Y476343D01*
X27036Y478017D01*
X26455Y479804D01*
X26254Y481077D01*
X36577Y481077D01*
X36577Y470754D01*
X35304Y470955D01*
G37*
%LPD*%
%LPC*%
G36*
X708404Y953555D02*
X708404Y953555D01*
X706617Y954136D01*
X704943Y954989D01*
X703422Y956094D01*
X702094Y957422D01*
X700989Y958943D01*
X700136Y960617D01*
X699555Y962404D01*
X699354Y963677D01*
X709677Y963677D01*
X709677Y953354D01*
X708404Y953555D01*
G37*
%LPD*%
%LPC*%
G36*
X403604Y483655D02*
X403604Y483655D01*
X401817Y484236D01*
X400143Y485089D01*
X398622Y486194D01*
X397294Y487522D01*
X396189Y489043D01*
X395336Y490717D01*
X394755Y492504D01*
X394554Y493777D01*
X404877Y493777D01*
X404877Y483454D01*
X403604Y483655D01*
G37*
%LPD*%
%LPC*%
G36*
X136904Y902755D02*
X136904Y902755D01*
X135117Y903336D01*
X133443Y904189D01*
X131922Y905294D01*
X130594Y906622D01*
X129489Y908143D01*
X128636Y909817D01*
X128055Y911604D01*
X127854Y912877D01*
X138177Y912877D01*
X138177Y902554D01*
X136904Y902755D01*
G37*
%LPD*%
%LPC*%
G36*
X103123Y560323D02*
X103123Y560323D01*
X103123Y569489D01*
X104128Y569330D01*
X105744Y568805D01*
X107258Y568033D01*
X108633Y567034D01*
X109834Y565833D01*
X110833Y564458D01*
X111605Y562944D01*
X112130Y561328D01*
X112289Y560323D01*
X103123Y560323D01*
G37*
%LPD*%
%LPC*%
G36*
X712723Y776023D02*
X712723Y776023D01*
X712723Y785189D01*
X713728Y785030D01*
X715344Y784505D01*
X716858Y783733D01*
X718233Y782734D01*
X719434Y781533D01*
X720433Y780158D01*
X721205Y778644D01*
X721730Y777028D01*
X721889Y776023D01*
X712723Y776023D01*
G37*
%LPD*%
%LPC*%
G36*
X153923Y522223D02*
X153923Y522223D01*
X153923Y531389D01*
X154928Y531230D01*
X156544Y530705D01*
X158058Y529933D01*
X159433Y528934D01*
X160634Y527733D01*
X161633Y526358D01*
X162405Y524844D01*
X162930Y523228D01*
X163089Y522223D01*
X153923Y522223D01*
G37*
%LPD*%
%LPC*%
G36*
X458923Y433323D02*
X458923Y433323D01*
X458923Y442489D01*
X459928Y442330D01*
X461544Y441805D01*
X463058Y441033D01*
X464433Y440034D01*
X465634Y438833D01*
X466633Y437458D01*
X467405Y435944D01*
X467930Y434328D01*
X468089Y433323D01*
X458923Y433323D01*
G37*
%LPD*%
%LPC*%
G36*
X153923Y519177D02*
X153923Y519177D01*
X163089Y519177D01*
X162930Y518172D01*
X162405Y516556D01*
X161633Y515042D01*
X160634Y513667D01*
X159433Y512466D01*
X158058Y511467D01*
X156544Y510695D01*
X154928Y510170D01*
X153923Y510011D01*
X153923Y519177D01*
G37*
%LPD*%
%LPC*%
G36*
X90911Y560323D02*
X90911Y560323D01*
X91070Y561328D01*
X91595Y562944D01*
X92367Y564458D01*
X93366Y565833D01*
X94567Y567034D01*
X95942Y568033D01*
X97456Y568805D01*
X99072Y569330D01*
X100077Y569489D01*
X100077Y560323D01*
X90911Y560323D01*
G37*
%LPD*%
%LPC*%
G36*
X700511Y776023D02*
X700511Y776023D01*
X700670Y777028D01*
X701195Y778644D01*
X701967Y780158D01*
X702966Y781533D01*
X704167Y782734D01*
X705542Y783733D01*
X707056Y784505D01*
X708672Y785030D01*
X709677Y785189D01*
X709677Y776023D01*
X700511Y776023D01*
G37*
%LPD*%
%LPC*%
G36*
X446711Y433323D02*
X446711Y433323D01*
X446870Y434328D01*
X447395Y435944D01*
X448167Y437458D01*
X449166Y438833D01*
X450367Y440034D01*
X451742Y441033D01*
X453256Y441805D01*
X454872Y442330D01*
X455877Y442489D01*
X455877Y433323D01*
X446711Y433323D01*
G37*
%LPD*%
%LPC*%
G36*
X712723Y772977D02*
X712723Y772977D01*
X721889Y772977D01*
X721730Y771972D01*
X721205Y770356D01*
X720433Y768842D01*
X719434Y767467D01*
X718233Y766266D01*
X716858Y765267D01*
X715344Y764495D01*
X713728Y763970D01*
X712723Y763811D01*
X712723Y772977D01*
G37*
%LPD*%
%LPC*%
G36*
X141711Y522223D02*
X141711Y522223D01*
X141870Y523228D01*
X142395Y524844D01*
X143167Y526358D01*
X144166Y527733D01*
X145367Y528934D01*
X146742Y529933D01*
X148256Y530705D01*
X149872Y531230D01*
X150877Y531389D01*
X150877Y522223D01*
X141711Y522223D01*
G37*
%LPD*%
%LPC*%
G36*
X103123Y557277D02*
X103123Y557277D01*
X112289Y557277D01*
X112130Y556272D01*
X111605Y554656D01*
X110833Y553142D01*
X109834Y551767D01*
X108633Y550566D01*
X107258Y549567D01*
X105744Y548795D01*
X104128Y548270D01*
X103123Y548111D01*
X103123Y557277D01*
G37*
%LPD*%
%LPC*%
G36*
X458923Y430277D02*
X458923Y430277D01*
X468089Y430277D01*
X467930Y429272D01*
X467405Y427656D01*
X466633Y426142D01*
X465634Y424767D01*
X464433Y423566D01*
X463058Y422567D01*
X461544Y421795D01*
X459928Y421270D01*
X458923Y421111D01*
X458923Y430277D01*
G37*
%LPD*%
%LPC*%
G36*
X99072Y548270D02*
X99072Y548270D01*
X97456Y548795D01*
X95942Y549567D01*
X94567Y550566D01*
X93366Y551767D01*
X92367Y553142D01*
X91595Y554656D01*
X91070Y556272D01*
X90911Y557277D01*
X100077Y557277D01*
X100077Y548111D01*
X99072Y548270D01*
G37*
%LPD*%
%LPC*%
G36*
X149872Y510170D02*
X149872Y510170D01*
X148256Y510695D01*
X146742Y511467D01*
X145367Y512466D01*
X144166Y513667D01*
X143167Y515042D01*
X142395Y516556D01*
X141870Y518172D01*
X141711Y519177D01*
X150877Y519177D01*
X150877Y510011D01*
X149872Y510170D01*
G37*
%LPD*%
%LPC*%
G36*
X708672Y763970D02*
X708672Y763970D01*
X707056Y764495D01*
X705542Y765267D01*
X704167Y766266D01*
X702966Y767467D01*
X701967Y768842D01*
X701195Y770356D01*
X700670Y771972D01*
X700511Y772977D01*
X709677Y772977D01*
X709677Y763811D01*
X708672Y763970D01*
G37*
%LPD*%
%LPC*%
G36*
X454872Y421270D02*
X454872Y421270D01*
X453256Y421795D01*
X451742Y422567D01*
X450367Y423566D01*
X449166Y424767D01*
X448167Y426142D01*
X447395Y427656D01*
X446870Y429272D01*
X446711Y430277D01*
X455877Y430277D01*
X455877Y421111D01*
X454872Y421270D01*
G37*
%LPD*%
%LPC*%
G36*
X382523Y268223D02*
X382523Y268223D01*
X382523Y277260D01*
X383498Y277106D01*
X385095Y276587D01*
X386592Y275825D01*
X387950Y274838D01*
X389138Y273650D01*
X390125Y272292D01*
X390887Y270795D01*
X391406Y269198D01*
X391560Y268223D01*
X382523Y268223D01*
G37*
%LPD*%
%LPC*%
G36*
X407923Y192023D02*
X407923Y192023D01*
X407923Y201060D01*
X408898Y200906D01*
X410495Y200387D01*
X411992Y199625D01*
X413350Y198638D01*
X414538Y197450D01*
X415525Y196092D01*
X416287Y194595D01*
X416806Y192998D01*
X416960Y192023D01*
X407923Y192023D01*
G37*
%LPD*%
%LPC*%
G36*
X407923Y188977D02*
X407923Y188977D01*
X416960Y188977D01*
X416806Y188002D01*
X416287Y186405D01*
X415525Y184908D01*
X414538Y183550D01*
X413350Y182362D01*
X411992Y181375D01*
X410495Y180613D01*
X408898Y180094D01*
X407923Y179940D01*
X407923Y188977D01*
G37*
%LPD*%
%LPC*%
G36*
X382523Y265177D02*
X382523Y265177D01*
X391560Y265177D01*
X391406Y264202D01*
X390887Y262605D01*
X390125Y261108D01*
X389138Y259750D01*
X387950Y258562D01*
X386592Y257575D01*
X385095Y256813D01*
X383498Y256294D01*
X382523Y256140D01*
X382523Y265177D01*
G37*
%LPD*%
%LPC*%
G36*
X370440Y268223D02*
X370440Y268223D01*
X370594Y269198D01*
X371113Y270795D01*
X371875Y272292D01*
X372862Y273650D01*
X374050Y274838D01*
X375408Y275825D01*
X376905Y276587D01*
X378502Y277106D01*
X379477Y277260D01*
X379477Y268223D01*
X370440Y268223D01*
G37*
%LPD*%
%LPC*%
G36*
X395840Y192023D02*
X395840Y192023D01*
X395994Y192998D01*
X396513Y194595D01*
X397275Y196092D01*
X398262Y197450D01*
X399450Y198638D01*
X400808Y199625D01*
X402305Y200387D01*
X403902Y200906D01*
X404877Y201060D01*
X404877Y192023D01*
X395840Y192023D01*
G37*
%LPD*%
%LPC*%
G36*
X378502Y256294D02*
X378502Y256294D01*
X376905Y256813D01*
X375408Y257575D01*
X374050Y258562D01*
X372862Y259750D01*
X371875Y261108D01*
X371113Y262605D01*
X370594Y264202D01*
X370440Y265177D01*
X379477Y265177D01*
X379477Y256140D01*
X378502Y256294D01*
G37*
%LPD*%
%LPC*%
G36*
X403902Y180094D02*
X403902Y180094D01*
X402305Y180613D01*
X400808Y181375D01*
X399450Y182362D01*
X398262Y183550D01*
X397275Y184908D01*
X396513Y186405D01*
X395994Y188002D01*
X395840Y188977D01*
X404877Y188977D01*
X404877Y179940D01*
X403902Y180094D01*
G37*
%LPD*%
%LPC*%
G36*
X711199Y774499D02*
X711199Y774499D01*
X711199Y774501D01*
X711201Y774501D01*
X711201Y774499D01*
X711199Y774499D01*
G37*
%LPD*%
%LPC*%
G36*
X457399Y431799D02*
X457399Y431799D01*
X457399Y431801D01*
X457401Y431801D01*
X457401Y431799D01*
X457399Y431799D01*
G37*
%LPD*%
%LPC*%
G36*
X152399Y520699D02*
X152399Y520699D01*
X152399Y520701D01*
X152401Y520701D01*
X152401Y520699D01*
X152399Y520699D01*
G37*
%LPD*%
%LPC*%
G36*
X609599Y825499D02*
X609599Y825499D01*
X609599Y825501D01*
X609601Y825501D01*
X609601Y825499D01*
X609599Y825499D01*
G37*
%LPD*%
%LPC*%
G36*
X139699Y914399D02*
X139699Y914399D01*
X139699Y914401D01*
X139701Y914401D01*
X139701Y914399D01*
X139699Y914399D01*
G37*
%LPD*%
%LPC*%
G36*
X711199Y965199D02*
X711199Y965199D01*
X711199Y965201D01*
X711201Y965201D01*
X711201Y965199D01*
X711199Y965199D01*
G37*
%LPD*%
%LPC*%
G36*
X825015Y132399D02*
X825015Y132399D01*
X825015Y132401D01*
X825017Y132401D01*
X825017Y132399D01*
X825015Y132399D01*
G37*
%LPD*%
%LPC*%
G36*
X380999Y266699D02*
X380999Y266699D01*
X380999Y266701D01*
X381001Y266701D01*
X381001Y266699D01*
X380999Y266699D01*
G37*
%LPD*%
%LPC*%
G36*
X38099Y482599D02*
X38099Y482599D01*
X38099Y482601D01*
X38101Y482601D01*
X38101Y482599D01*
X38099Y482599D01*
G37*
%LPD*%
%LPC*%
G36*
X101599Y558799D02*
X101599Y558799D01*
X101599Y558801D01*
X101601Y558801D01*
X101601Y558799D01*
X101599Y558799D01*
G37*
%LPD*%
%LPC*%
G36*
X406399Y495299D02*
X406399Y495299D01*
X406399Y495301D01*
X406401Y495301D01*
X406401Y495299D01*
X406399Y495299D01*
G37*
%LPD*%
%LPC*%
G36*
X406399Y190499D02*
X406399Y190499D01*
X406399Y190501D01*
X406401Y190501D01*
X406401Y190499D01*
X406399Y190499D01*
G37*
%LPD*%
%LPC*%
G36*
X787653Y90969D02*
X787653Y90969D01*
X787653Y90971D01*
X787655Y90971D01*
X787655Y90969D01*
X787653Y90969D01*
G37*
%LPD*%
%LPC*%
G36*
X380999Y495299D02*
X380999Y495299D01*
X380999Y495301D01*
X381001Y495301D01*
X381001Y495299D01*
X380999Y495299D01*
G37*
%LPD*%
%LPC*%
G36*
X354329Y342899D02*
X354329Y342899D01*
X354329Y342901D01*
X354331Y342901D01*
X354331Y342899D01*
X354329Y342899D01*
G37*
%LPD*%
%LPC*%
G36*
X380999Y406399D02*
X380999Y406399D01*
X380999Y406401D01*
X381001Y406401D01*
X381001Y406399D01*
X380999Y406399D01*
G37*
%LPD*%
%LPC*%
G36*
X279399Y634999D02*
X279399Y634999D01*
X279399Y635001D01*
X279401Y635001D01*
X279401Y634999D01*
X279399Y634999D01*
G37*
%LPD*%
D10*
X38100Y355600D03*
X381000Y406400D03*
X635000Y114300D03*
X279400Y635000D03*
X304800Y635000D03*
X508000Y596900D03*
X533400Y596900D03*
X558800Y596900D03*
X304800Y495300D03*
X330200Y495300D03*
X355600Y495300D03*
X381000Y495300D03*
X406400Y495300D03*
X431800Y495300D03*
X50800Y50800D03*
X50800Y76200D03*
X50800Y101600D03*
X50800Y127000D03*
X50800Y152400D03*
X50800Y177800D03*
X685800Y965200D03*
X711200Y965200D03*
D11*
X101600Y558800D03*
X101600Y533400D03*
X152400Y520700D03*
X152400Y495300D03*
D12*
X482400Y431800D03*
D11*
X457400Y431800D03*
X711200Y774500D03*
D12*
X711200Y749500D03*
D13*
X382270Y342900D03*
X354330Y342900D03*
D10*
X533400Y393700D03*
X38100Y482600D03*
D14*
X787400Y164178D03*
D15*
X787654Y90970D03*
X825016Y132400D03*
D10*
X774700Y901700D03*
X800100Y901700D03*
X825500Y901700D03*
X609600Y419100D03*
X609600Y444500D03*
X635000Y419100D03*
X635000Y444500D03*
X660400Y419100D03*
X660400Y444500D03*
X685800Y419100D03*
X685800Y444500D03*
D16*
X63500Y812800D03*
X63500Y914400D03*
D17*
X635000Y965200D03*
X533400Y965200D03*
D16*
X304800Y838200D03*
X304800Y939800D03*
D10*
X114300Y914400D03*
X139700Y914400D03*
D18*
X228600Y190500D03*
X254000Y190500D03*
X279400Y190500D03*
X304800Y190500D03*
X330200Y190500D03*
X355600Y190500D03*
X381000Y190500D03*
X406400Y190500D03*
X431800Y190500D03*
X457200Y190500D03*
X482600Y190500D03*
X508000Y190500D03*
X533400Y190500D03*
X558800Y190500D03*
X558800Y266700D03*
X533400Y266700D03*
X508000Y266700D03*
X482600Y266700D03*
X457200Y266700D03*
X431800Y266700D03*
X406400Y266700D03*
X381000Y266700D03*
X355600Y266700D03*
X330200Y266700D03*
X304800Y266700D03*
X279400Y266700D03*
X254000Y266700D03*
X228600Y266700D03*
D19*
X825500Y596900D03*
D10*
X825500Y622300D03*
X825500Y647700D03*
D11*
X101600Y431800D03*
X152400Y431800D03*
D10*
X736600Y825500D03*
X812800Y825500D03*
X609600Y825500D03*
X685800Y825500D03*
D20*
X533400Y660400D03*
D21*
X533400Y787400D01*
D20*
X533400Y787400D03*
X660400Y508000D03*
D21*
X558800Y508000D01*
D20*
X558800Y508000D03*
X381000Y152400D03*
D21*
X596900Y152400D01*
X596900Y368300D01*
D20*
X596900Y368300D03*
X177800Y165100D03*
D21*
X279400Y165100D01*
D20*
X279400Y165100D03*
X635000Y368300D03*
D21*
X635000Y304800D01*
D20*
X635000Y304800D03*
X711200Y63500D03*
D21*
X304800Y63500D01*
D20*
X304800Y63500D03*
X368300Y723900D03*
D21*
X330200Y723900D01*
X38100Y431800D01*
X38100Y393700D01*
D20*
X38100Y393700D03*
X88900Y76200D03*
D21*
X330200Y76200D01*
D20*
X330200Y76200D03*
X88900Y88900D03*
D21*
X355600Y88900D01*
D20*
X355600Y88900D03*
X88900Y101600D03*
D21*
X482600Y101600D01*
D20*
X482600Y101600D03*
X88900Y114300D03*
D21*
X533400Y114300D01*
D20*
X533400Y114300D03*
X88900Y127000D03*
D21*
X546100Y127000D01*
X558800Y139700D01*
D20*
X558800Y139700D03*
X50800Y292100D03*
D21*
X558800Y292100D01*
D20*
X558800Y292100D03*
M02*
