G04 EAGLE Gerber RS-274X export*
G75*
%MOMM*%
%FSLAX34Y34*%
%LPD*%
%INTop Copper*%
%IPPOS*%
%AMOC8*
5,1,8,0,0,1.08239X$1,22.5*%
G01*
%ADD10C,1.879600*%
%ADD11C,1.651000*%
%ADD12R,1.651000X1.651000*%
%ADD13C,2.032000*%
%ADD14C,4.216000*%
%ADD15C,4.114800*%
%ADD16P,1.429621X8X112.500000*%
%ADD17P,1.429621X8X202.500000*%
%ADD18C,1.625600*%
%ADD19R,1.879600X1.879600*%
%ADD20C,0.304800*%
%ADD21C,0.254000*%
%ADD22C,0.914400*%


D10*
X38100Y355600D03*
X381000Y406400D03*
X635000Y114300D03*
X279400Y635000D03*
X304800Y635000D03*
X508000Y596900D03*
X533400Y596900D03*
X558800Y596900D03*
X304800Y495300D03*
X330200Y495300D03*
X355600Y495300D03*
X381000Y495300D03*
X406400Y495300D03*
X431800Y495300D03*
X50800Y50800D03*
X50800Y76200D03*
X50800Y101600D03*
X50800Y127000D03*
X50800Y152400D03*
X50800Y177800D03*
X685800Y965200D03*
X711200Y965200D03*
D11*
X101600Y558800D03*
X101600Y533400D03*
X152400Y520700D03*
X152400Y495300D03*
D12*
X482400Y431800D03*
D11*
X457400Y431800D03*
X711200Y774500D03*
D12*
X711200Y749500D03*
D13*
X382270Y342900D03*
X354330Y342900D03*
D10*
X533400Y393700D03*
X38100Y482600D03*
D14*
X787400Y164178D03*
D15*
X787654Y90970D03*
X825016Y132400D03*
D10*
X774700Y901700D03*
X800100Y901700D03*
X825500Y901700D03*
X609600Y419100D03*
X609600Y444500D03*
X635000Y419100D03*
X635000Y444500D03*
X660400Y419100D03*
X660400Y444500D03*
X685800Y419100D03*
X685800Y444500D03*
D16*
X63500Y812800D03*
X63500Y914400D03*
D17*
X635000Y965200D03*
X533400Y965200D03*
D16*
X304800Y838200D03*
X304800Y939800D03*
D10*
X114300Y914400D03*
X139700Y914400D03*
D18*
X228600Y190500D03*
X254000Y190500D03*
X279400Y190500D03*
X304800Y190500D03*
X330200Y190500D03*
X355600Y190500D03*
X381000Y190500D03*
X406400Y190500D03*
X431800Y190500D03*
X457200Y190500D03*
X482600Y190500D03*
X508000Y190500D03*
X533400Y190500D03*
X558800Y190500D03*
X558800Y266700D03*
X533400Y266700D03*
X508000Y266700D03*
X482600Y266700D03*
X457200Y266700D03*
X431800Y266700D03*
X406400Y266700D03*
X381000Y266700D03*
X355600Y266700D03*
X330200Y266700D03*
X304800Y266700D03*
X279400Y266700D03*
X254000Y266700D03*
X228600Y266700D03*
D19*
X825500Y596900D03*
D10*
X825500Y622300D03*
X825500Y647700D03*
D11*
X101600Y431800D03*
X152400Y431800D03*
D10*
X736600Y825500D03*
X812800Y825500D03*
X609600Y825500D03*
X685800Y825500D03*
D20*
X520700Y977900D02*
X304800Y977900D01*
X520700Y977900D02*
X533400Y965200D01*
D21*
X533400Y596900D02*
X533400Y520700D01*
X508000Y495300D01*
X482600Y495300D01*
X533400Y596900D02*
X533400Y660400D01*
D22*
X533400Y660400D03*
X533400Y787400D03*
D21*
X533400Y965200D01*
D22*
X660400Y508000D03*
X558800Y508000D03*
D21*
X558800Y469900D01*
X520700Y431800D01*
X482400Y431800D01*
X431800Y342900D02*
X431800Y266700D01*
X431800Y342900D02*
X431800Y355600D01*
X381000Y190500D02*
X381000Y152400D01*
D22*
X381000Y152400D03*
X596900Y368300D03*
D21*
X482600Y368300D01*
X304800Y939800D02*
X304800Y977900D01*
X660400Y508000D02*
X774700Y508000D01*
X787400Y495300D01*
X787400Y164178D01*
X444500Y368300D02*
X431800Y355600D01*
X444500Y368300D02*
X482600Y368300D01*
X482400Y495100D02*
X482600Y495300D01*
X482400Y495100D02*
X482400Y431800D01*
X482600Y431600D01*
X482600Y368300D01*
X431800Y342900D02*
X382270Y342900D01*
X431800Y495300D02*
X482600Y495300D01*
X304800Y635000D02*
X304800Y838200D01*
X304800Y622300D02*
X355600Y571500D01*
X304800Y622300D02*
X304800Y635000D01*
X355600Y571500D02*
X355600Y495300D01*
X190500Y368300D02*
X190500Y190500D01*
X203200Y177800D01*
X215900Y177800D01*
X228600Y190500D01*
X190500Y368300D02*
X203200Y381000D01*
X342900Y381000D01*
X355600Y393700D01*
X355600Y495300D01*
X635000Y965200D02*
X685800Y965200D01*
X152400Y495300D02*
X152400Y431800D01*
X139700Y419100D01*
X139700Y63500D01*
X152400Y50800D01*
X406400Y50800D01*
X431800Y76200D01*
X431800Y190500D01*
X101600Y431800D02*
X101600Y533400D01*
X101600Y431800D02*
X114300Y419100D01*
X457200Y190500D02*
X457200Y50800D01*
X444500Y38100D01*
X127000Y38100D01*
X114300Y50800D02*
X114300Y419100D01*
X114300Y50800D02*
X127000Y38100D01*
X114300Y914400D02*
X63500Y914400D01*
X165100Y388408D02*
X165100Y152400D01*
X177800Y139700D01*
X241300Y139700D01*
X254000Y152400D02*
X254000Y190500D01*
X254000Y152400D02*
X241300Y139700D01*
X292100Y406400D02*
X304800Y419100D01*
X183092Y406400D02*
X165100Y388408D01*
X304800Y419100D02*
X304800Y495300D01*
X292100Y406400D02*
X183092Y406400D01*
D22*
X177800Y165100D03*
X279400Y165100D03*
D21*
X279400Y190500D01*
X177800Y381000D02*
X190500Y393700D01*
X317500Y393700D01*
X330200Y406400D01*
X177800Y381000D02*
X177800Y165100D01*
X330200Y406400D02*
X330200Y495300D01*
X558800Y419100D02*
X609600Y419100D01*
X558800Y419100D02*
X533400Y393700D01*
X635000Y419100D02*
X635000Y368300D01*
D22*
X635000Y368300D03*
X635000Y304800D03*
D21*
X546100Y304800D01*
X533400Y292100D02*
X533400Y266700D01*
X533400Y292100D02*
X546100Y304800D01*
X711200Y177800D02*
X711200Y63500D01*
D22*
X711200Y63500D03*
X304800Y63500D03*
D21*
X304800Y190500D01*
X635000Y444500D02*
X635000Y482600D01*
X647700Y495300D01*
X736600Y495300D01*
X762000Y469900D01*
X762000Y228600D02*
X711200Y177800D01*
X762000Y228600D02*
X762000Y469900D01*
X660400Y469900D02*
X660400Y444500D01*
X660400Y469900D02*
X673100Y482600D01*
X711200Y482600D01*
X723900Y469900D01*
X508000Y304800D02*
X508000Y266700D01*
X508000Y304800D02*
X520700Y317500D01*
X711200Y317500D01*
X723900Y330200D01*
X723900Y469900D01*
X660400Y419100D02*
X660400Y355600D01*
X457200Y330200D02*
X457200Y266700D01*
X457200Y330200D02*
X469900Y342900D01*
X647700Y342900D01*
X660400Y355600D01*
X685800Y342900D02*
X685800Y419100D01*
X482600Y317500D02*
X482600Y266700D01*
X482600Y317500D02*
X495300Y330200D01*
X673100Y330200D01*
X685800Y342900D01*
X622300Y596900D02*
X558800Y596900D01*
X622300Y596900D02*
X622300Y457200D01*
X609600Y444500D01*
X711200Y622300D02*
X825500Y622300D01*
X711200Y622300D02*
X685800Y596900D01*
X622300Y596900D01*
X812800Y825500D02*
X850900Y825500D01*
X901700Y774700D01*
X901700Y635000D01*
X889000Y622300D01*
X825500Y622300D01*
X508000Y596900D02*
X508000Y723900D01*
X368300Y723900D01*
D22*
X368300Y723900D03*
X38100Y393700D03*
D21*
X685600Y723900D02*
X711200Y749500D01*
X685600Y723900D02*
X609600Y723900D01*
X508000Y723900D01*
X622300Y647700D02*
X825500Y647700D01*
X622300Y647700D02*
X609600Y660400D01*
X609600Y723900D01*
X38100Y393700D02*
X38100Y355600D01*
D22*
X88900Y76200D03*
X330200Y76200D03*
D21*
X330200Y190500D01*
X88900Y76200D02*
X76200Y76200D01*
X50800Y50800D01*
D22*
X88900Y88900D03*
X355600Y88900D03*
D21*
X355600Y190500D01*
X88900Y88900D02*
X63500Y88900D01*
X50800Y76200D01*
D22*
X88900Y101600D03*
X482600Y101600D03*
D21*
X482600Y190500D01*
X88900Y101600D02*
X50800Y101600D01*
D22*
X88900Y114300D03*
X533400Y114300D03*
D21*
X533400Y190500D01*
X88900Y114300D02*
X63500Y114300D01*
X50800Y127000D01*
D22*
X88900Y127000D03*
X558800Y139700D03*
D21*
X558800Y190500D01*
X88900Y127000D02*
X76200Y127000D01*
X50800Y152400D01*
X88900Y203200D02*
X63500Y228600D01*
X88900Y203200D02*
X88900Y127000D01*
X63500Y228600D02*
X63500Y812800D01*
D22*
X50800Y292100D03*
X558800Y292100D03*
D21*
X558800Y266700D01*
X50800Y292100D02*
X50800Y177800D01*
X609600Y88900D02*
X635000Y114300D01*
X508000Y101600D02*
X508000Y190500D01*
X508000Y101600D02*
X520700Y88900D01*
X609600Y88900D01*
X825500Y596900D02*
X901700Y596900D01*
X927100Y622300D01*
X927100Y787400D01*
X863600Y850900D01*
X736600Y825500D02*
X685800Y825500D01*
X736600Y825500D02*
X762000Y850900D01*
X863600Y850900D01*
M02*
