M48
;GenerationSoftware,Autodesk,EAGLE,9.6.2*%
;CreationDate,2022-11-15T00:40:48Z*%
FMAT,2
ICI,OFF
METRIC,TZ,000.000
T8C0.508
T7C0.700
T6C0.813
T5C0.900
T4C1.000
T3C1.016
T2C2.997
T1C3.200
%
G90
M71
T1
X78740Y16418
T2
X78765Y9097
X82502Y13240
T3
X5080Y17780
X35433Y34290
X53340Y39370
X60960Y44450
X63500Y11430
X82550Y90170
X80010Y90170
X77470Y90170
X60960Y41910
X38227Y34290
X43180Y49530
X3810Y48260
X5080Y5080
X5080Y7620
X68580Y41910
X5080Y10160
X5080Y12700
X5080Y15240
X68580Y44450
X38100Y40640
X66040Y44450
X66040Y41910
X63500Y44450
X3810Y35560
X63500Y41910
X27940Y63500
X30480Y63500
X50800Y59690
X53340Y59690
X55880Y59690
X30480Y49530
X33020Y49530
X35560Y49530
X38100Y49530
X40640Y49530
T4
X82550Y62230
X82550Y59690
X82550Y64770
T5
X60960Y82550
X81280Y82550
X73660Y82550
X68580Y82550
T6
X50800Y26670
X48260Y26670
X45720Y26670
X43180Y26670
X40640Y26670
X38100Y26670
X33020Y26670
X30480Y26670
X27940Y26670
X25400Y26670
X22860Y26670
X35560Y26670
X68580Y96520
X71120Y96520
X43180Y19050
X6350Y81280
X6350Y91440
X63500Y96520
X53340Y96520
X30480Y83820
X30480Y93980
X11430Y91440
X13970Y91440
X22860Y19050
X25400Y19050
X27940Y19050
X30480Y19050
X33020Y19050
X35560Y19050
X38100Y19050
X40640Y19050
X45720Y19050
X48260Y19050
X50800Y19050
X53340Y19050
X55880Y19050
X55880Y26670
X53340Y26670
T7
X15240Y52070
X10160Y55880
X10160Y53340
X71120Y74950
X71120Y77450
X45740Y43180
X48240Y43180
X15240Y49530
X10160Y43180
X15240Y43180
T8
X63500Y30480
X71120Y6350
X30480Y6350
X36830Y72390
X8890Y7620
X55880Y29210
X5080Y29210
X55880Y13970
X53340Y78740
X53340Y11430
X66040Y50800
X53340Y66040
X55880Y50800
X8890Y11430
X38100Y15240
X59690Y36830
X17780Y16510
X48260Y10160
X8890Y10160
X35560Y8890
X27940Y16510
X63500Y36830
X8890Y8890
X33020Y7620
X3810Y39370
X8890Y12700
M30