G04 EAGLE Gerber RS-274X export*
G75*
%MOMM*%
%FSLAX34Y34*%
%LPD*%
%INSoldermask Bottom*%
%IPPOS*%
%AMOC8*
5,1,8,0,0,1.08239X$1,22.5*%
G01*
%ADD10C,2.082800*%
%ADD11C,1.854200*%
%ADD12R,1.854200X1.854200*%
%ADD13C,4.419200*%
%ADD14C,4.318000*%
%ADD15P,1.649562X8X112.500000*%
%ADD16P,1.649562X8X202.500000*%
%ADD17C,1.828800*%
%ADD18R,2.082800X2.082800*%
%ADD19C,1.117600*%

G36*
X356090Y332859D02*
X356090Y332859D01*
X356133Y332871D01*
X356199Y332880D01*
X357816Y333334D01*
X357857Y333353D01*
X357885Y333362D01*
X357895Y333364D01*
X357899Y333366D01*
X357920Y333373D01*
X359434Y334101D01*
X359470Y334127D01*
X359529Y334157D01*
X360894Y335138D01*
X360925Y335170D01*
X360978Y335210D01*
X362152Y336412D01*
X362177Y336449D01*
X362222Y336497D01*
X363169Y337885D01*
X363187Y337926D01*
X363223Y337982D01*
X363915Y339513D01*
X363926Y339556D01*
X363952Y339617D01*
X364367Y341246D01*
X364370Y341290D01*
X364385Y341355D01*
X364511Y343030D01*
X364507Y343077D01*
X364509Y343149D01*
X364304Y344985D01*
X364290Y345031D01*
X364278Y345106D01*
X363718Y346867D01*
X363695Y346909D01*
X363669Y346981D01*
X362776Y348598D01*
X362746Y348636D01*
X362706Y348701D01*
X361515Y350113D01*
X361478Y350144D01*
X361426Y350200D01*
X359982Y351353D01*
X359940Y351376D01*
X359878Y351420D01*
X358237Y352269D01*
X358191Y352284D01*
X358122Y352315D01*
X356347Y352828D01*
X356299Y352833D01*
X356224Y352851D01*
X354384Y353007D01*
X354340Y353003D01*
X354275Y353007D01*
X352444Y352847D01*
X352398Y352834D01*
X352322Y352824D01*
X350558Y352310D01*
X350514Y352289D01*
X350442Y352264D01*
X348812Y351415D01*
X348774Y351386D01*
X348708Y351347D01*
X347275Y350197D01*
X347243Y350161D01*
X347186Y350110D01*
X346005Y348702D01*
X345981Y348661D01*
X345935Y348600D01*
X345725Y348218D01*
X345051Y346988D01*
X345036Y346943D01*
X345002Y346874D01*
X344450Y345121D01*
X344444Y345074D01*
X344424Y345000D01*
X344225Y343173D01*
X344228Y343127D01*
X344222Y343058D01*
X344345Y341382D01*
X344356Y341339D01*
X344362Y341273D01*
X344774Y339643D01*
X344792Y339603D01*
X344810Y339539D01*
X345498Y338006D01*
X345523Y337969D01*
X345552Y337909D01*
X346496Y336519D01*
X346527Y336487D01*
X346565Y336433D01*
X347736Y335227D01*
X347773Y335201D01*
X347820Y335155D01*
X349182Y334171D01*
X349223Y334152D01*
X349277Y334115D01*
X350790Y333382D01*
X350833Y333370D01*
X350844Y333365D01*
X350871Y333352D01*
X350876Y333351D01*
X350893Y333343D01*
X352510Y332885D01*
X352555Y332880D01*
X352619Y332864D01*
X354291Y332693D01*
X354339Y332697D01*
X354418Y332693D01*
X356090Y332859D01*
G37*
G36*
X384081Y332859D02*
X384081Y332859D01*
X384124Y332871D01*
X384190Y332880D01*
X385807Y333334D01*
X385848Y333353D01*
X385876Y333362D01*
X385886Y333364D01*
X385890Y333366D01*
X385911Y333373D01*
X387425Y334101D01*
X387461Y334127D01*
X387520Y334157D01*
X388885Y335138D01*
X388916Y335170D01*
X388969Y335210D01*
X390143Y336412D01*
X390168Y336449D01*
X390213Y336497D01*
X391160Y337885D01*
X391178Y337926D01*
X391214Y337982D01*
X391906Y339513D01*
X391917Y339556D01*
X391943Y339617D01*
X392358Y341246D01*
X392361Y341290D01*
X392376Y341355D01*
X392502Y343030D01*
X392498Y343077D01*
X392500Y343149D01*
X392295Y344985D01*
X392281Y345031D01*
X392269Y345106D01*
X391709Y346867D01*
X391686Y346909D01*
X391660Y346981D01*
X390767Y348598D01*
X390737Y348636D01*
X390697Y348701D01*
X389506Y350113D01*
X389469Y350144D01*
X389417Y350200D01*
X387973Y351353D01*
X387931Y351376D01*
X387869Y351420D01*
X386228Y352269D01*
X386182Y352284D01*
X386113Y352315D01*
X384338Y352828D01*
X384290Y352833D01*
X384215Y352851D01*
X382375Y353007D01*
X382331Y353003D01*
X382266Y353007D01*
X380435Y352847D01*
X380389Y352834D01*
X380313Y352824D01*
X378549Y352310D01*
X378505Y352289D01*
X378433Y352264D01*
X376803Y351415D01*
X376765Y351386D01*
X376699Y351347D01*
X375266Y350197D01*
X375234Y350161D01*
X375177Y350110D01*
X373996Y348702D01*
X373972Y348661D01*
X373926Y348600D01*
X373716Y348218D01*
X373042Y346988D01*
X373027Y346943D01*
X372993Y346874D01*
X372441Y345121D01*
X372435Y345074D01*
X372415Y345000D01*
X372216Y343173D01*
X372219Y343127D01*
X372213Y343058D01*
X372336Y341382D01*
X372347Y341339D01*
X372353Y341273D01*
X372765Y339643D01*
X372783Y339603D01*
X372801Y339539D01*
X373489Y338006D01*
X373514Y337969D01*
X373543Y337909D01*
X374487Y336519D01*
X374518Y336487D01*
X374556Y336433D01*
X375727Y335227D01*
X375764Y335201D01*
X375811Y335155D01*
X377173Y334171D01*
X377214Y334152D01*
X377268Y334115D01*
X378781Y333382D01*
X378824Y333370D01*
X378835Y333365D01*
X378862Y333352D01*
X378867Y333351D01*
X378884Y333343D01*
X380501Y332885D01*
X380546Y332880D01*
X380610Y332864D01*
X382282Y332693D01*
X382330Y332697D01*
X382409Y332693D01*
X384081Y332859D01*
G37*
D10*
X38100Y355600D03*
X381000Y406400D03*
X635000Y114300D03*
X279400Y635000D03*
X304800Y635000D03*
X508000Y596900D03*
X533400Y596900D03*
X558800Y596900D03*
X304800Y495300D03*
X330200Y495300D03*
X355600Y495300D03*
X381000Y495300D03*
X406400Y495300D03*
X431800Y495300D03*
X50800Y50800D03*
X50800Y76200D03*
X50800Y101600D03*
X50800Y127000D03*
X50800Y152400D03*
X50800Y177800D03*
X685800Y965200D03*
X711200Y965200D03*
D11*
X101600Y558800D03*
X101600Y533400D03*
X152400Y520700D03*
X152400Y495300D03*
D12*
X482400Y431800D03*
D11*
X457400Y431800D03*
X711200Y774500D03*
D12*
X711200Y749500D03*
D10*
X533400Y393700D03*
X38100Y482600D03*
D13*
X787400Y164178D03*
D14*
X787654Y90970D03*
X825016Y132400D03*
D10*
X774700Y901700D03*
X800100Y901700D03*
X825500Y901700D03*
X609600Y419100D03*
X609600Y444500D03*
X635000Y419100D03*
X635000Y444500D03*
X660400Y419100D03*
X660400Y444500D03*
X685800Y419100D03*
X685800Y444500D03*
D15*
X63500Y812800D03*
X63500Y914400D03*
D16*
X635000Y965200D03*
X533400Y965200D03*
D15*
X304800Y838200D03*
X304800Y939800D03*
D10*
X114300Y914400D03*
X139700Y914400D03*
D17*
X228600Y190500D03*
X254000Y190500D03*
X279400Y190500D03*
X304800Y190500D03*
X330200Y190500D03*
X355600Y190500D03*
X381000Y190500D03*
X406400Y190500D03*
X431800Y190500D03*
X457200Y190500D03*
X482600Y190500D03*
X508000Y190500D03*
X533400Y190500D03*
X558800Y190500D03*
X558800Y266700D03*
X533400Y266700D03*
X508000Y266700D03*
X482600Y266700D03*
X457200Y266700D03*
X431800Y266700D03*
X406400Y266700D03*
X381000Y266700D03*
X355600Y266700D03*
X330200Y266700D03*
X304800Y266700D03*
X279400Y266700D03*
X254000Y266700D03*
X228600Y266700D03*
D18*
X825500Y596900D03*
D10*
X825500Y622300D03*
X825500Y647700D03*
D11*
X101600Y431800D03*
X152400Y431800D03*
D10*
X736600Y825500D03*
X812800Y825500D03*
X609600Y825500D03*
X685800Y825500D03*
D19*
X533400Y660400D03*
X533400Y787400D03*
X660400Y508000D03*
X558800Y508000D03*
X381000Y152400D03*
X596900Y368300D03*
X177800Y165100D03*
X279400Y165100D03*
X635000Y368300D03*
X635000Y304800D03*
X711200Y63500D03*
X304800Y63500D03*
X368300Y723900D03*
X38100Y393700D03*
X88900Y76200D03*
X330200Y76200D03*
X88900Y88900D03*
X355600Y88900D03*
X88900Y101600D03*
X482600Y101600D03*
X88900Y114300D03*
X533400Y114300D03*
X88900Y127000D03*
X558800Y139700D03*
X50800Y292100D03*
X558800Y292100D03*
M02*
